<svg width="394mm" height="315mm" viewBox="0 0 394 315" xmlns="http://www.w3.org/2000/svg" version="1.1" preserveAspectRatio="xMidYMid meet"><g id="svgGroup" stroke-linecap="round" fill-rule="evenodd" font-size="9pt" stroke="#000" stroke-width="0.25mm" fill="none" style="stroke:#000;stroke-width:0.25mm;fill:none"><path d="M 0 269 L 0 276.813 L 3 276.813 L 3 286.938 L 0 286.938 L 0 297.063 L 3 297.063 L 3 307.188 L 0 307.188 L 0 315 L 12.438 315 L 12.438 312 L 22.563 312 L 22.563 315 L 32.688 315 L 32.688 312 L 42.813 312 L 42.813 315 L 52.938 315 L 52.938 312 L 63.063 312 L 63.063 315 L 73.188 315 L 73.188 312 L 83.313 312 L 83.313 315 L 93.438 315 L 93.438 312 L 103.563 312 L 103.563 315 L 116 315 L 116 307.188 L 113 307.188 L 113 297.063 L 116 297.063 L 116 286.938 L 113 286.938 L 113 276.813 L 116 276.813 L 116 269 L 103.563 269 L 103.563 272 L 93.438 272 L 93.438 269 L 83.313 269 L 83.313 272 L 73.188 272 L 73.188 269 L 63.063 269 L 63.063 272 L 52.938 272 L 52.938 269 L 42.813 269 L 42.813 272 L 32.688 272 L 32.688 269 L 22.563 269 L 22.563 272 L 12.438 272 L 12.438 269 L 0 269 Z" id="front_outsideCutPath" stroke="#FF0000" stroke-width="0.1" style="stroke:#FF0000;stroke-width:0.1" vector-effect="non-scaling-stroke"/><path d="M 64.705 295.475 L 63.959 295.475 L 63.959 292.29 A 2.108 2.108 0 0 0 63.935 291.959 Q 63.907 291.785 63.848 291.646 A 0.887 0.887 0 0 0 63.685 291.391 A 0.841 0.841 0 0 0 63.34 291.171 Q 63.205 291.123 63.038 291.105 A 1.977 1.977 0 0 0 62.827 291.095 A 2.257 2.257 0 0 0 62.405 291.132 Q 62.169 291.176 61.988 291.276 A 1.051 1.051 0 0 0 61.695 291.513 Q 61.335 291.93 61.335 292.892 L 61.335 295.475 L 60.59 295.475 L 60.59 290.551 L 61.196 290.551 L 61.317 291.225 L 61.353 291.225 Q 61.583 290.861 61.996 290.661 Q 62.409 290.461 62.917 290.461 Q 63.507 290.461 63.903 290.65 A 1.34 1.34 0 0 1 64.255 290.89 Q 64.705 291.319 64.705 292.263 L 64.705 295.475 Z M 50.379 290.551 L 50.379 291.131 L 49.126 291.131 L 49.126 295.475 L 48.38 295.475 L 48.38 291.131 L 47.5 291.131 L 47.5 290.794 L 48.38 290.524 L 48.38 290.25 A 3.022 3.022 0 0 1 48.451 289.565 Q 48.669 288.631 49.562 288.469 A 2.267 2.267 0 0 1 49.966 288.435 A 2.401 2.401 0 0 1 50.306 288.461 Q 50.471 288.485 50.655 288.53 A 4.827 4.827 0 0 1 50.882 288.593 L 50.689 289.19 A 3.621 3.621 0 0 0 50.407 289.111 Q 50.265 289.077 50.14 289.062 A 1.604 1.604 0 0 0 49.952 289.051 A 1.006 1.006 0 0 0 49.71 289.078 A 0.646 0.646 0 0 0 49.328 289.332 A 0.863 0.863 0 0 0 49.214 289.562 Q 49.138 289.786 49.127 290.12 A 3.521 3.521 0 0 0 49.126 290.232 L 49.126 290.551 L 50.379 290.551 Z M 68.5 294.859 L 68.5 295.43 A 0.733 0.733 0 0 1 68.413 295.464 Q 68.321 295.495 68.188 295.519 A 2.79 2.79 0 0 1 68.143 295.526 A 3.232 3.232 0 0 1 67.933 295.554 Q 67.833 295.563 67.744 295.564 A 1.911 1.911 0 0 1 67.719 295.564 A 1.948 1.948 0 0 1 67.145 295.487 Q 66.29 295.224 66.29 294.06 L 66.29 291.131 L 65.585 291.131 L 65.585 290.771 L 66.29 290.461 L 66.605 289.41 L 67.036 289.41 L 67.036 290.551 L 68.465 290.551 L 68.465 291.131 L 67.036 291.131 L 67.036 294.028 Q 67.036 294.341 67.14 294.551 A 0.723 0.723 0 0 0 67.247 294.711 Q 67.458 294.949 67.827 294.949 A 2.449 2.449 0 0 0 68.185 294.923 A 2.258 2.258 0 0 0 68.208 294.92 A 4.034 4.034 0 0 0 68.316 294.901 Q 68.419 294.882 68.49 294.862 A 1.126 1.126 0 0 0 68.5 294.859 Z M 54.112 290.515 L 54.009 291.207 A 3.287 3.287 0 0 0 53.772 291.163 Q 53.654 291.146 53.55 291.142 A 1.749 1.749 0 0 0 53.47 291.14 A 1.292 1.292 0 0 0 52.515 291.552 A 1.768 1.768 0 0 0 52.448 291.625 Q 52.023 292.11 52.023 292.833 L 52.023 295.475 L 51.277 295.475 L 51.277 290.551 L 51.893 290.551 L 51.978 291.463 L 52.014 291.463 A 2.518 2.518 0 0 1 52.296 291.061 A 1.924 1.924 0 0 1 52.675 290.722 A 1.487 1.487 0 0 1 53.524 290.461 A 3.423 3.423 0 0 1 53.83 290.474 A 2.499 2.499 0 0 1 54.112 290.515 Z M 59.283 293.008 Q 59.283 294.212 58.676 294.888 Q 58.07 295.564 57 295.564 A 2.395 2.395 0 0 1 56.305 295.466 A 2.076 2.076 0 0 1 55.828 295.254 A 2.019 2.019 0 0 1 55.092 294.471 A 2.451 2.451 0 0 1 55.037 294.365 A 2.759 2.759 0 0 1 54.806 293.613 A 3.73 3.73 0 0 1 54.759 293.008 A 3.872 3.872 0 0 1 54.827 292.26 Q 54.961 291.579 55.361 291.133 Q 55.963 290.461 57.032 290.461 A 2.506 2.506 0 0 1 57.768 290.564 A 1.952 1.952 0 0 1 58.674 291.149 A 2.322 2.322 0 0 1 59.181 292.132 Q 59.283 292.53 59.283 293.008 Z M 55.532 293.008 A 3.776 3.776 0 0 0 55.567 293.548 Q 55.607 293.822 55.69 294.044 A 1.564 1.564 0 0 0 55.909 294.446 A 1.222 1.222 0 0 0 56.705 294.915 A 1.852 1.852 0 0 0 57.018 294.94 A 1.732 1.732 0 0 0 57.475 294.883 A 1.205 1.205 0 0 0 58.13 294.448 A 1.601 1.601 0 0 0 58.38 293.963 Q 58.453 293.738 58.485 293.464 A 3.928 3.928 0 0 0 58.51 293.008 Q 58.51 292.07 58.13 291.582 A 1.227 1.227 0 0 0 57.368 291.127 A 1.881 1.881 0 0 0 57.009 291.095 A 1.775 1.775 0 0 0 56.568 291.146 A 1.188 1.188 0 0 0 55.904 291.575 Q 55.532 292.056 55.532 293.008 Z" id="front_labelLayer" stroke="#777777" fill="#777777" style="stroke:#777777;fill:#777777" vector-effect="non-scaling-stroke"/><path d="M 122 269 L 122 276.813 L 119 276.813 L 119 286.938 L 122 286.938 L 122 297.063 L 119 297.063 L 119 307.188 L 122 307.188 L 122 315 L 131.188 315 L 131.188 312 L 141.313 312 L 141.313 315 L 151.438 315 L 151.438 312 L 161.563 312 L 161.563 315 L 171.688 315 L 171.688 312 L 181.813 312 L 181.813 315 L 191.938 315 L 191.938 312 L 202.063 312 L 202.063 315 L 212.188 315 L 212.188 312 L 222.313 312 L 222.313 315 L 232.438 315 L 232.438 312 L 242.563 312 L 242.563 315 L 252.688 315 L 252.688 312 L 262.813 312 L 262.813 315 L 272 315 L 272 307.188 L 275 307.188 L 275 297.063 L 272 297.063 L 272 286.938 L 275 286.938 L 275 276.813 L 272 276.813 L 272 269 L 262.813 269 L 262.813 272 L 252.688 272 L 252.688 269 L 242.563 269 L 242.563 272 L 232.438 272 L 232.438 269 L 222.313 269 L 222.313 272 L 212.188 272 L 212.188 269 L 202.063 269 L 202.063 272 L 191.938 272 L 191.938 269 L 181.813 269 L 181.813 272 L 171.688 272 L 171.688 269 L 161.563 269 L 161.563 272 L 151.438 272 L 151.438 269 L 141.313 269 L 141.313 272 L 131.188 272 L 131.188 269 L 122 269 Z" id="left_outsideCutPath" stroke="#FF0000" stroke-width="0.1" style="stroke:#FF0000;stroke-width:0.1" vector-effect="non-scaling-stroke"/><path d="M 200.273 290.551 L 200.273 291.131 L 199.019 291.131 L 199.019 295.475 L 198.274 295.475 L 198.274 291.131 L 197.393 291.131 L 197.393 290.794 L 198.274 290.524 L 198.274 290.25 A 3.022 3.022 0 0 1 198.344 289.565 Q 198.562 288.631 199.455 288.469 A 2.267 2.267 0 0 1 199.859 288.435 A 2.401 2.401 0 0 1 200.199 288.461 Q 200.364 288.485 200.548 288.53 A 4.827 4.827 0 0 1 200.776 288.593 L 200.583 289.19 A 3.621 3.621 0 0 0 200.301 289.111 Q 200.159 289.077 200.033 289.062 A 1.604 1.604 0 0 0 199.846 289.051 A 1.006 1.006 0 0 0 199.603 289.078 A 0.646 0.646 0 0 0 199.221 289.332 A 0.863 0.863 0 0 0 199.107 289.562 Q 199.032 289.786 199.021 290.12 A 3.521 3.521 0 0 0 199.019 290.232 L 199.019 290.551 L 200.273 290.551 Z M 196.782 292.676 L 196.782 293.148 L 193.391 293.148 A 2.993 2.993 0 0 0 193.443 293.649 Q 193.497 293.922 193.605 294.137 A 1.4 1.4 0 0 0 193.829 294.464 A 1.355 1.355 0 0 0 194.54 294.865 A 2.053 2.053 0 0 0 194.999 294.913 A 3.938 3.938 0 0 0 196.474 294.621 A 4.512 4.512 0 0 0 196.571 294.581 L 196.571 295.246 A 4.477 4.477 0 0 1 196.163 295.4 A 3.423 3.423 0 0 1 195.823 295.49 A 3.13 3.13 0 0 1 195.512 295.538 Q 195.268 295.564 194.972 295.564 A 2.898 2.898 0 0 1 194.247 295.479 A 2.052 2.052 0 0 1 193.249 294.9 Q 192.618 294.235 192.618 293.053 A 3.916 3.916 0 0 1 192.69 292.277 Q 192.786 291.805 193.007 291.438 A 2.208 2.208 0 0 1 193.204 291.162 A 1.911 1.911 0 0 1 194.597 290.467 A 2.636 2.636 0 0 1 194.779 290.461 A 2.272 2.272 0 0 1 195.418 290.547 A 1.729 1.729 0 0 1 196.243 291.07 A 2.085 2.085 0 0 1 196.716 292.023 A 3.035 3.035 0 0 1 196.782 292.676 Z M 203.435 294.859 L 203.435 295.43 A 0.733 0.733 0 0 1 203.348 295.464 Q 203.255 295.495 203.122 295.519 A 2.79 2.79 0 0 1 203.078 295.526 A 3.232 3.232 0 0 1 202.867 295.554 Q 202.768 295.563 202.679 295.564 A 1.911 1.911 0 0 1 202.653 295.564 A 1.948 1.948 0 0 1 202.079 295.487 Q 201.225 295.224 201.225 294.06 L 201.225 291.131 L 200.52 291.131 L 200.52 290.771 L 201.225 290.461 L 201.539 289.41 L 201.971 289.41 L 201.971 290.551 L 203.399 290.551 L 203.399 291.131 L 201.971 291.131 L 201.971 294.028 Q 201.971 294.341 202.075 294.551 A 0.723 0.723 0 0 0 202.182 294.711 Q 202.393 294.949 202.761 294.949 A 2.449 2.449 0 0 0 203.12 294.923 A 2.258 2.258 0 0 0 203.143 294.92 A 4.034 4.034 0 0 0 203.251 294.901 Q 203.354 294.882 203.425 294.862 A 1.126 1.126 0 0 0 203.435 294.859 Z M 191.311 288.485 L 191.311 295.475 L 190.565 295.475 L 190.565 288.485 L 191.311 288.485 Z M 193.408 292.541 L 195.983 292.541 A 2.541 2.541 0 0 0 195.952 292.133 Q 195.916 291.914 195.839 291.738 A 1.154 1.154 0 0 0 195.668 291.461 A 1.022 1.022 0 0 0 195.053 291.111 A 1.533 1.533 0 0 0 194.77 291.086 A 1.47 1.47 0 0 0 194.345 291.144 A 1.136 1.136 0 0 0 193.824 291.472 A 1.473 1.473 0 0 0 193.531 291.966 Q 193.457 292.169 193.423 292.414 A 2.817 2.817 0 0 0 193.408 292.541 Z" id="left_labelLayer" stroke="#777777" fill="#777777" style="stroke:#777777;fill:#777777" vector-effect="non-scaling-stroke"/><path d="M 281 162 L 281 171.188 L 278 171.188 L 278 181.313 L 281 181.313 L 281 191.438 L 278 191.438 L 278 201.563 L 281 201.563 L 281 211.688 L 278 211.688 L 278 221.813 L 281 221.813 L 281 231.938 L 278 231.938 L 278 242.063 L 281 242.063 L 281 252.188 L 278 252.188 L 278 262.313 L 281 262.313 L 281 272.438 L 278 272.438 L 278 282.563 L 281 282.563 L 281 292.688 L 278 292.688 L 278 302.813 L 281 302.813 L 281 312 L 290.438 312 L 290.438 315 L 300.563 315 L 300.563 312 L 310.688 312 L 310.688 315 L 320.813 315 L 320.813 312 L 330.938 312 L 330.938 315 L 341.063 315 L 341.063 312 L 351.188 312 L 351.188 315 L 361.313 315 L 361.313 312 L 371.438 312 L 371.438 315 L 381.563 315 L 381.563 312 L 391 312 L 391 302.813 L 394 302.813 L 394 292.688 L 391 292.688 L 391 282.563 L 394 282.563 L 394 272.438 L 391 272.438 L 391 262.313 L 394 262.313 L 394 252.188 L 391 252.188 L 391 242.063 L 394 242.063 L 394 231.938 L 391 231.938 L 391 221.813 L 394 221.813 L 394 211.688 L 391 211.688 L 391 201.563 L 394 201.563 L 394 191.438 L 391 191.438 L 391 181.313 L 394 181.313 L 394 171.188 L 391 171.188 L 391 162 L 381.563 162 L 381.563 159 L 371.438 159 L 371.438 162 L 361.313 162 L 361.313 159 L 351.188 159 L 351.188 162 L 341.063 162 L 341.063 159 L 330.938 159 L 330.938 162 L 320.813 162 L 320.813 159 L 310.688 159 L 310.688 162 L 300.563 162 L 300.563 159 L 290.438 159 L 290.438 162 L 281 162 Z" id="top_outsideCutPath" stroke="#FF0000" stroke-width="0.1" style="stroke:#FF0000;stroke-width:0.1" vector-effect="non-scaling-stroke"/><path d="M 344.337 240.263 L 344.201 240.263 A 17.796 17.796 0 0 1 344.318 241.578 A 14.912 14.912 0 0 1 344.337 242.324 L 344.337 247.433 L 342.457 247.433 L 342.457 229.444 L 343.986 229.444 L 344.247 231.143 L 344.337 231.143 A 5.062 5.062 0 0 1 345.069 230.312 A 3.914 3.914 0 0 1 346.025 229.671 A 4.709 4.709 0 0 1 347.375 229.276 A 6.095 6.095 0 0 1 348.234 229.218 A 5.764 5.764 0 0 1 349.863 229.435 A 4.26 4.26 0 0 1 352.046 230.905 A 5.646 5.646 0 0 1 353.01 232.787 Q 353.389 234.022 353.389 235.641 A 11.026 11.026 0 0 1 353.242 237.496 Q 353.073 238.484 352.709 239.277 A 5.286 5.286 0 0 1 352.024 240.393 A 4.452 4.452 0 0 1 348.86 242.056 A 6.378 6.378 0 0 1 348.234 242.086 A 5.704 5.704 0 0 1 346.801 241.912 A 4.963 4.963 0 0 1 346.02 241.639 Q 345.017 241.191 344.337 240.263 Z M 325.963 240.308 L 325.963 241.746 A 1.85 1.85 0 0 1 325.744 241.834 Q 325.51 241.911 325.175 241.971 A 7.033 7.033 0 0 1 325.063 241.99 A 8.15 8.15 0 0 1 324.531 242.059 Q 324.245 242.086 323.992 242.086 A 4.912 4.912 0 0 1 322.545 241.892 Q 320.39 241.227 320.39 238.291 L 320.39 230.905 L 318.611 230.905 L 318.611 229.999 L 320.39 229.218 L 321.183 226.567 L 322.27 226.567 L 322.27 229.444 L 325.873 229.444 L 325.873 230.905 L 322.27 230.905 L 322.27 238.212 A 3.787 3.787 0 0 0 322.325 238.877 Q 322.39 239.242 322.533 239.531 A 1.824 1.824 0 0 0 322.803 239.934 A 1.747 1.747 0 0 0 323.877 240.506 A 2.513 2.513 0 0 0 324.264 240.534 A 6.176 6.176 0 0 0 325.169 240.47 A 5.694 5.694 0 0 0 325.227 240.461 A 10.172 10.172 0 0 0 325.498 240.414 Q 325.758 240.366 325.938 240.315 A 2.827 2.827 0 0 0 325.963 240.308 Z M 338.988 237.53 A 9.713 9.713 0 0 0 339.16 235.641 A 11.036 11.036 0 0 0 339.156 235.342 Q 339.128 234.308 338.905 233.431 A 5.855 5.855 0 0 0 337.625 230.951 Q 336.091 229.218 333.485 229.218 A 7.304 7.304 0 0 0 332.173 229.33 A 4.974 4.974 0 0 0 329.271 230.911 A 5.195 5.195 0 0 0 328.633 231.796 Q 328.141 232.653 327.924 233.752 A 9.764 9.764 0 0 0 327.753 235.641 A 9.407 9.407 0 0 0 327.871 237.164 A 6.956 6.956 0 0 0 328.455 239.062 Q 329.158 240.523 330.449 241.305 A 5.236 5.236 0 0 0 331.651 241.839 A 6.039 6.039 0 0 0 333.406 242.086 A 7.302 7.302 0 0 0 334.681 241.98 A 5.013 5.013 0 0 0 337.631 240.381 Q 338.647 239.249 338.988 237.53 Z M 329.701 235.641 Q 329.701 238.02 330.653 239.266 A 3.082 3.082 0 0 0 332.66 240.448 A 4.67 4.67 0 0 0 333.451 240.512 A 4.368 4.368 0 0 0 334.603 240.368 A 3.04 3.04 0 0 0 336.255 239.271 Q 336.967 238.349 337.149 236.791 A 9.905 9.905 0 0 0 337.212 235.641 A 9.383 9.383 0 0 0 337.123 234.304 Q 336.92 232.899 336.255 232.044 A 3.093 3.093 0 0 0 334.332 230.897 A 4.743 4.743 0 0 0 333.428 230.815 A 4.475 4.475 0 0 0 332.314 230.945 A 2.995 2.995 0 0 0 330.642 232.027 A 3.888 3.888 0 0 0 330.037 233.195 Q 329.859 233.732 329.775 234.388 A 9.937 9.937 0 0 0 329.701 235.641 Z M 344.337 235.221 L 344.337 235.641 A 12.434 12.434 0 0 0 344.399 236.926 Q 344.534 238.222 344.967 239.011 A 2.836 2.836 0 0 0 345.21 239.385 Q 345.992 240.395 347.62 240.5 A 6.046 6.046 0 0 0 348.008 240.512 A 3.169 3.169 0 0 0 349.24 240.28 Q 349.95 239.984 350.457 239.307 A 3.748 3.748 0 0 0 350.528 239.209 A 4.547 4.547 0 0 0 351.152 237.88 Q 351.332 237.271 351.4 236.539 A 10.018 10.018 0 0 0 351.44 235.618 A 9.489 9.489 0 0 0 351.351 234.272 Q 351.155 232.908 350.528 232.055 A 2.925 2.925 0 0 0 348.389 230.837 A 4.046 4.046 0 0 0 347.962 230.815 Q 346.059 230.815 345.21 231.868 Q 344.414 232.855 344.344 234.933 A 11.969 11.969 0 0 0 344.337 235.221 Z" id="top_labelLayer" stroke="#777777" fill="#777777" style="stroke:#777777;fill:#777777" vector-effect="non-scaling-stroke"/><path d="M 0 220 L 0 227.813 L 3 227.813 L 3 237.938 L 0 237.938 L 0 248.063 L 3 248.063 L 3 258.188 L 0 258.188 L 0 266 L 12.438 266 L 12.438 263 L 22.563 263 L 22.563 266 L 32.688 266 L 32.688 263 L 42.813 263 L 42.813 266 L 52.938 266 L 52.938 263 L 63.063 263 L 63.063 266 L 73.188 266 L 73.188 263 L 83.313 263 L 83.313 266 L 93.438 266 L 93.438 263 L 103.563 263 L 103.563 266 L 116 266 L 116 258.188 L 113 258.188 L 113 248.063 L 116 248.063 L 116 237.938 L 113 237.938 L 113 227.813 L 116 227.813 L 116 220 L 103.563 220 L 103.563 223 L 93.438 223 L 93.438 220 L 83.313 220 L 83.313 223 L 73.188 223 L 73.188 220 L 63.063 220 L 63.063 223 L 52.938 223 L 52.938 220 L 42.813 220 L 42.813 223 L 32.688 223 L 32.688 220 L 22.563 220 L 22.563 223 L 12.438 223 L 12.438 220 L 0 220 Z" id="back_outsideCutPath" stroke="#FF0000" stroke-width="0.1" style="stroke:#FF0000;stroke-width:0.1" vector-effect="non-scaling-stroke"/><path d="M 64.298 243.93 L 64.334 243.93 A 4.415 4.415 0 0 1 64.443 243.782 Q 64.626 243.545 64.922 243.211 L 66.513 241.527 L 67.398 241.527 L 65.403 243.624 L 67.537 246.45 L 66.634 246.45 L 64.896 244.123 L 64.334 244.608 L 64.334 246.45 L 63.597 246.45 L 63.597 239.46 L 64.334 239.46 L 64.334 243.166 A 4.97 4.97 0 0 1 64.332 243.307 Q 64.325 243.537 64.299 243.911 A 29.918 29.918 0 0 1 64.298 243.93 Z M 49.209 245.817 L 49.155 245.817 L 48.998 246.45 L 48.463 246.45 L 48.463 239.46 L 49.209 239.46 L 49.209 241.158 A 15.547 15.547 0 0 1 49.2 241.683 Q 49.192 241.932 49.175 242.153 A 9.328 9.328 0 0 1 49.173 242.182 L 49.209 242.182 A 1.695 1.695 0 0 1 50.446 241.464 A 2.547 2.547 0 0 1 50.754 241.446 A 2.279 2.279 0 0 1 51.396 241.531 A 1.706 1.706 0 0 1 52.261 242.108 A 2.197 2.197 0 0 1 52.647 242.85 Q 52.741 243.156 52.777 243.522 A 4.786 4.786 0 0 1 52.798 243.984 Q 52.798 245.197 52.257 245.868 A 1.765 1.765 0 0 1 51.002 246.528 A 2.529 2.529 0 0 1 50.754 246.54 A 2.262 2.262 0 0 1 50.186 246.47 A 1.968 1.968 0 0 1 49.876 246.362 A 1.652 1.652 0 0 1 49.209 245.817 Z M 57.681 246.45 L 57.129 246.45 L 56.98 245.749 L 56.944 245.749 Q 56.684 246.076 56.425 246.254 A 1.374 1.374 0 0 1 56.21 246.376 A 1.72 1.72 0 0 1 55.855 246.488 Q 55.682 246.524 55.483 246.535 A 3.356 3.356 0 0 1 55.296 246.54 A 2.288 2.288 0 0 1 54.83 246.495 Q 54.421 246.41 54.148 246.162 A 1.226 1.226 0 0 1 53.778 245.516 A 1.876 1.876 0 0 1 53.732 245.089 A 1.29 1.29 0 0 1 54.466 243.871 Q 55.056 243.558 56.118 243.526 L 56.953 243.499 L 56.953 243.193 Q 56.953 242.614 56.704 242.337 A 0.757 0.757 0 0 0 56.394 242.135 Q 56.27 242.09 56.116 242.072 A 1.842 1.842 0 0 0 55.907 242.061 A 2.428 2.428 0 0 0 55.348 242.131 Q 54.957 242.223 54.514 242.438 L 54.285 241.868 A 3.438 3.438 0 0 1 54.949 241.595 A 3.914 3.914 0 0 1 55.082 241.558 A 3.453 3.453 0 0 1 55.952 241.446 A 3.149 3.149 0 0 1 56.431 241.48 Q 56.678 241.518 56.875 241.599 A 1.269 1.269 0 0 1 57.257 241.836 A 1.181 1.181 0 0 1 57.561 242.307 Q 57.632 242.5 57.661 242.739 A 2.934 2.934 0 0 1 57.681 243.09 L 57.681 246.45 Z M 62.501 241.693 L 62.272 242.326 A 3.317 3.317 0 0 0 61.912 242.206 A 3.962 3.962 0 0 0 61.733 242.162 Q 61.441 242.097 61.216 242.097 A 1.654 1.654 0 0 0 60.545 242.223 Q 59.841 242.534 59.735 243.607 A 4.12 4.12 0 0 0 59.716 244.011 A 3.611 3.611 0 0 0 59.752 244.537 Q 59.83 245.07 60.082 245.403 A 1.184 1.184 0 0 0 60.849 245.862 A 1.804 1.804 0 0 0 61.167 245.888 A 3.122 3.122 0 0 0 62.028 245.763 A 3.854 3.854 0 0 0 62.429 245.623 L 62.429 246.284 Q 61.935 246.54 61.185 246.54 A 2.787 2.787 0 0 1 60.507 246.462 A 1.89 1.89 0 0 1 59.53 245.882 A 2.157 2.157 0 0 1 59.081 245.058 Q 58.982 244.731 58.954 244.338 A 4.509 4.509 0 0 1 58.943 244.02 A 4.114 4.114 0 0 1 59.007 243.271 Q 59.084 242.854 59.255 242.525 A 2.056 2.056 0 0 1 59.539 242.11 A 1.931 1.931 0 0 1 60.596 241.502 A 2.927 2.927 0 0 1 61.234 241.437 A 3.365 3.365 0 0 1 61.944 241.513 Q 62.299 241.589 62.501 241.693 Z M 50.646 242.07 Q 49.883 242.07 49.546 242.508 A 1.277 1.277 0 0 0 49.361 242.86 Q 49.236 243.209 49.214 243.741 A 5.745 5.745 0 0 0 49.209 243.984 Q 49.209 244.865 49.458 245.32 A 1.125 1.125 0 0 0 49.555 245.468 A 1.082 1.082 0 0 0 50.103 245.839 Q 50.287 245.896 50.511 245.911 A 2.398 2.398 0 0 0 50.664 245.915 A 1.487 1.487 0 0 0 51.086 245.859 A 1.072 1.072 0 0 0 51.688 245.415 A 1.712 1.712 0 0 0 51.9 244.956 Q 51.967 244.739 51.998 244.475 A 4.273 4.273 0 0 0 52.025 243.975 Q 52.025 243.013 51.688 242.542 A 1.087 1.087 0 0 0 50.996 242.104 A 1.725 1.725 0 0 0 50.646 242.07 Z M 56.935 244.473 L 56.935 244.029 L 56.19 244.06 Q 55.447 244.086 55.05 244.261 A 1.145 1.145 0 0 0 54.907 244.336 A 0.796 0.796 0 0 0 54.528 244.914 A 1.178 1.178 0 0 0 54.514 245.098 Q 54.514 245.453 54.703 245.659 A 0.664 0.664 0 0 0 54.759 245.713 A 0.812 0.812 0 0 0 55.063 245.875 Q 55.183 245.91 55.328 245.92 A 1.677 1.677 0 0 0 55.444 245.924 A 2.053 2.053 0 0 0 55.887 245.879 Q 56.277 245.793 56.538 245.543 A 1.249 1.249 0 0 0 56.886 244.919 Q 56.935 244.718 56.935 244.481 A 2.367 2.367 0 0 0 56.935 244.473 Z" id="back_labelLayer" stroke="#777777" fill="#777777" style="stroke:#777777;fill:#777777" vector-effect="non-scaling-stroke"/><path d="M 122 220 L 122 227.813 L 119 227.813 L 119 237.938 L 122 237.938 L 122 248.063 L 119 248.063 L 119 258.188 L 122 258.188 L 122 266 L 131.188 266 L 131.188 263 L 141.313 263 L 141.313 266 L 151.438 266 L 151.438 263 L 161.563 263 L 161.563 266 L 171.688 266 L 171.688 263 L 181.813 263 L 181.813 266 L 191.938 266 L 191.938 263 L 202.063 263 L 202.063 266 L 212.188 266 L 212.188 263 L 222.313 263 L 222.313 266 L 232.438 266 L 232.438 263 L 242.563 263 L 242.563 266 L 252.688 266 L 252.688 263 L 262.813 263 L 262.813 266 L 272 266 L 272 258.188 L 275 258.188 L 275 248.063 L 272 248.063 L 272 237.938 L 275 237.938 L 275 227.813 L 272 227.813 L 272 220 L 262.813 220 L 262.813 223 L 252.688 223 L 252.688 220 L 242.563 220 L 242.563 223 L 232.438 223 L 232.438 220 L 222.313 220 L 222.313 223 L 212.188 223 L 212.188 220 L 202.063 220 L 202.063 223 L 191.938 223 L 191.938 220 L 181.813 220 L 181.813 223 L 171.688 223 L 171.688 220 L 161.563 220 L 161.563 223 L 151.438 223 L 151.438 220 L 141.313 220 L 141.313 223 L 131.188 223 L 131.188 220 L 122 220 Z" id="right_outsideCutPath" stroke="#FF0000" stroke-width="0.1" style="stroke:#FF0000;stroke-width:0.1" vector-effect="non-scaling-stroke"/><path d="M 202.721 245.39 L 201.975 245.39 L 201.975 242.205 A 2.108 2.108 0 0 0 201.951 241.874 Q 201.923 241.7 201.864 241.562 A 0.887 0.887 0 0 0 201.701 241.306 A 0.841 0.841 0 0 0 201.356 241.086 Q 201.221 241.039 201.054 241.021 A 1.977 1.977 0 0 0 200.843 241.01 Q 200.336 241.01 200.007 241.19 A 1.044 1.044 0 0 0 199.709 241.432 A 1.241 1.241 0 0 0 199.498 241.805 Q 199.371 242.147 199.354 242.655 A 4.813 4.813 0 0 0 199.352 242.816 L 199.352 245.39 L 198.606 245.39 L 198.606 238.4 L 199.352 238.4 L 199.352 240.516 Q 199.352 240.791 199.333 240.998 A 2.917 2.917 0 0 1 199.316 241.149 L 199.361 241.149 A 1.49 1.49 0 0 1 199.883 240.647 A 1.82 1.82 0 0 1 199.987 240.59 A 1.914 1.914 0 0 1 200.616 240.404 A 2.42 2.42 0 0 1 200.915 240.386 A 3.025 3.025 0 0 1 201.423 240.425 Q 201.955 240.516 202.269 240.815 Q 202.62 241.148 202.698 241.786 A 3.225 3.225 0 0 1 202.721 242.178 L 202.721 245.39 Z M 195.893 240.466 L 197.595 240.466 L 197.595 240.938 L 196.683 241.046 Q 196.789 241.178 196.876 241.379 A 2.299 2.299 0 0 1 196.908 241.457 A 1.435 1.435 0 0 1 196.993 241.8 A 1.842 1.842 0 0 1 197.007 242.03 A 1.709 1.709 0 0 1 196.928 242.56 A 1.383 1.383 0 0 1 196.513 243.184 A 1.654 1.654 0 0 1 195.862 243.527 Q 195.547 243.615 195.156 243.615 A 2.397 2.397 0 0 1 194.879 243.6 A 2.024 2.024 0 0 1 194.743 243.579 Q 194.267 243.831 194.267 244.213 Q 194.267 244.415 194.433 244.512 Q 194.599 244.608 195.003 244.608 L 195.875 244.608 Q 196.674 244.608 197.103 244.945 A 1.091 1.091 0 0 1 197.509 245.64 A 1.638 1.638 0 0 1 197.532 245.924 Q 197.532 246.742 196.876 247.171 Q 196.221 247.6 194.963 247.6 Q 194.329 247.6 193.886 247.445 A 1.733 1.733 0 0 1 193.474 247.241 Q 192.984 246.904 192.952 246.309 A 1.574 1.574 0 0 1 192.95 246.225 A 1.14 1.14 0 0 1 193.238 245.448 A 1.302 1.302 0 0 1 193.685 245.122 A 1.846 1.846 0 0 1 194.046 245.003 A 0.774 0.774 0 0 1 193.746 244.761 A 0.919 0.919 0 0 1 193.73 244.738 A 0.691 0.691 0 0 1 193.603 244.365 A 0.856 0.856 0 0 1 193.602 244.321 A 0.853 0.853 0 0 1 193.645 244.046 A 0.756 0.756 0 0 1 193.745 243.849 Q 193.854 243.696 194.058 243.551 A 2.343 2.343 0 0 1 194.199 243.458 A 1.307 1.307 0 0 1 193.631 243.004 A 1.62 1.62 0 0 1 193.577 242.924 A 1.542 1.542 0 0 1 193.34 242.181 A 1.881 1.881 0 0 1 193.337 242.061 A 2.154 2.154 0 0 1 193.393 241.552 A 1.417 1.417 0 0 1 193.822 240.815 Q 194.241 240.436 194.962 240.385 A 3.294 3.294 0 0 1 195.196 240.377 A 2.858 2.858 0 0 1 195.574 240.4 A 2.177 2.177 0 0 1 195.893 240.466 Z M 206.517 244.774 L 206.517 245.345 A 0.733 0.733 0 0 1 206.43 245.379 Q 206.337 245.41 206.204 245.434 A 2.79 2.79 0 0 1 206.16 245.441 A 3.232 3.232 0 0 1 205.949 245.469 Q 205.849 245.478 205.76 245.479 A 1.911 1.911 0 0 1 205.735 245.48 A 1.948 1.948 0 0 1 205.161 245.402 Q 204.307 245.139 204.307 243.975 L 204.307 241.046 L 203.601 241.046 L 203.601 240.686 L 204.307 240.377 L 204.621 239.325 L 205.052 239.325 L 205.052 240.466 L 206.481 240.466 L 206.481 241.046 L 205.052 241.046 L 205.052 243.943 Q 205.052 244.256 205.156 244.466 A 0.723 0.723 0 0 0 205.263 244.626 Q 205.475 244.864 205.843 244.864 A 2.449 2.449 0 0 0 206.202 244.839 A 2.258 2.258 0 0 0 206.225 244.835 A 4.034 4.034 0 0 0 206.332 244.817 Q 206.435 244.797 206.507 244.777 A 1.126 1.126 0 0 0 206.517 244.774 Z M 190.318 240.43 L 190.215 241.122 A 3.287 3.287 0 0 0 189.978 241.079 Q 189.86 241.062 189.756 241.057 A 1.749 1.749 0 0 0 189.675 241.055 A 1.292 1.292 0 0 0 188.721 241.467 A 1.768 1.768 0 0 0 188.654 241.54 Q 188.229 242.025 188.229 242.748 L 188.229 245.39 L 187.483 245.39 L 187.483 240.466 L 188.099 240.466 L 188.184 241.378 L 188.22 241.378 A 2.518 2.518 0 0 1 188.502 240.976 A 1.924 1.924 0 0 1 188.88 240.637 A 1.487 1.487 0 0 1 189.729 240.377 A 3.423 3.423 0 0 1 190.036 240.39 A 2.499 2.499 0 0 1 190.318 240.43 Z M 191.984 240.466 L 191.984 245.39 L 191.239 245.39 L 191.239 240.466 L 191.984 240.466 Z M 195.637 245.278 L 194.743 245.278 Q 194.371 245.278 194.12 245.408 A 0.873 0.873 0 0 0 193.952 245.52 A 0.786 0.786 0 0 0 193.694 245.966 A 1.193 1.193 0 0 0 193.669 246.216 A 0.749 0.749 0 0 0 193.718 246.494 Q 193.789 246.673 193.962 246.794 A 0.875 0.875 0 0 0 194.006 246.823 A 1.194 1.194 0 0 0 194.3 246.949 Q 194.577 247.029 194.966 247.029 A 3.916 3.916 0 0 0 194.972 247.029 A 5.013 5.013 0 0 0 195.461 247.007 Q 196.038 246.951 196.362 246.749 A 1.088 1.088 0 0 0 196.614 246.538 A 0.815 0.815 0 0 0 196.814 245.987 Q 196.814 245.74 196.719 245.586 A 0.47 0.47 0 0 0 196.567 245.432 Q 196.378 245.314 195.937 245.286 A 4.745 4.745 0 0 0 195.637 245.278 Z M 194.073 242.043 Q 194.073 242.56 194.365 242.825 Q 194.628 243.064 195.077 243.087 A 1.92 1.92 0 0 0 195.178 243.09 A 1.625 1.625 0 0 0 195.604 243.039 Q 196.09 242.907 196.222 242.429 A 1.51 1.51 0 0 0 196.27 242.03 A 1.603 1.603 0 0 0 196.215 241.591 Q 196.075 241.098 195.574 240.967 A 1.622 1.622 0 0 0 195.165 240.92 A 1.565 1.565 0 0 0 194.846 240.951 Q 194.546 241.013 194.356 241.203 A 0.895 0.895 0 0 0 194.14 241.568 Q 194.094 241.709 194.08 241.881 A 1.962 1.962 0 0 0 194.073 242.043 Z M 191.186 238.996 A 0.826 0.826 0 0 0 191.176 239.132 Q 191.176 239.259 191.208 239.353 A 0.385 0.385 0 0 0 191.302 239.507 A 0.418 0.418 0 0 0 191.453 239.604 A 0.474 0.474 0 0 0 191.616 239.631 Q 191.796 239.631 191.926 239.507 Q 192.017 239.421 192.044 239.274 A 0.772 0.772 0 0 0 192.056 239.132 A 0.853 0.853 0 0 0 192.053 239.051 Q 192.046 238.978 192.025 238.918 A 0.377 0.377 0 0 0 191.926 238.759 A 0.439 0.439 0 0 0 191.616 238.638 A 0.569 0.569 0 0 0 191.578 238.639 A 0.431 0.431 0 0 0 191.302 238.757 Q 191.212 238.842 191.186 238.996 Z" id="right_labelLayer" stroke="#777777" fill="#777777" style="stroke:#777777;fill:#777777" vector-effect="non-scaling-stroke"/><path d="M 281 3 L 281 12.188 L 278 12.188 L 278 22.313 L 281 22.313 L 281 32.438 L 278 32.438 L 278 42.563 L 281 42.563 L 281 52.688 L 278 52.688 L 278 62.813 L 281 62.813 L 281 72.938 L 278 72.938 L 278 83.063 L 281 83.063 L 281 93.188 L 278 93.188 L 278 103.313 L 281 103.313 L 281 113.438 L 278 113.438 L 278 123.563 L 281 123.563 L 281 133.688 L 278 133.688 L 278 143.813 L 281 143.813 L 281 153 L 290.438 153 L 290.438 156 L 300.563 156 L 300.563 153 L 310.688 153 L 310.688 156 L 320.813 156 L 320.813 153 L 330.938 153 L 330.938 156 L 341.063 156 L 341.063 153 L 351.188 153 L 351.188 156 L 361.313 156 L 361.313 153 L 371.438 153 L 371.438 156 L 381.563 156 L 381.563 153 L 391 153 L 391 143.813 L 394 143.813 L 394 133.688 L 391 133.688 L 391 123.563 L 394 123.563 L 394 113.438 L 391 113.438 L 391 103.313 L 394 103.313 L 394 93.188 L 391 93.188 L 391 83.063 L 394 83.063 L 394 72.938 L 391 72.938 L 391 62.813 L 394 62.813 L 394 52.688 L 391 52.688 L 391 42.563 L 394 42.563 L 394 32.438 L 391 32.438 L 391 22.313 L 394 22.313 L 394 12.188 L 391 12.188 L 391 3 L 381.563 3 L 381.563 0 L 371.438 0 L 371.438 3 L 361.313 3 L 361.313 0 L 351.188 0 L 351.188 3 L 341.063 3 L 341.063 0 L 330.938 0 L 330.938 3 L 320.813 3 L 320.813 0 L 310.688 0 L 310.688 3 L 300.563 3 L 300.563 0 L 290.438 0 L 290.438 3 L 281 3 Z" id="bottom_outsideCutPath" stroke="#FF0000" stroke-width="0.1" style="stroke:#FF0000;stroke-width:0.1" vector-effect="non-scaling-stroke"/><path d="M 374.164 86.7 L 372.284 86.7 L 372.284 78.623 A 5.548 5.548 0 0 0 372.228 77.807 Q 372.096 76.918 371.65 76.397 A 1.979 1.979 0 0 0 370.73 75.802 Q 370.402 75.696 370.002 75.666 A 4.365 4.365 0 0 0 369.678 75.655 Q 368.447 75.655 367.667 76.151 A 2.49 2.49 0 0 0 367.084 76.663 A 3.107 3.107 0 0 0 366.557 77.617 Q 366.246 78.49 366.246 79.767 L 366.246 86.7 L 364.366 86.7 L 364.366 78.623 A 5.548 5.548 0 0 0 364.31 77.807 Q 364.177 76.918 363.731 76.397 Q 363.182 75.755 362.099 75.668 A 4.403 4.403 0 0 0 361.749 75.655 Q 360.515 75.655 359.743 76.171 A 2.465 2.465 0 0 0 359.16 76.714 A 3.153 3.153 0 0 0 358.693 77.602 Q 358.39 78.46 358.346 79.746 A 13.093 13.093 0 0 0 358.339 80.186 L 358.339 86.7 L 356.459 86.7 L 356.459 74.284 L 357.988 74.284 L 358.294 75.983 L 358.384 75.983 A 3.696 3.696 0 0 1 359.885 74.567 Q 360.854 74.058 362.055 74.058 A 6.157 6.157 0 0 1 363.44 74.202 Q 365.2 74.609 365.861 76.165 L 365.952 76.165 A 3.926 3.926 0 0 1 367.43 74.696 A 4.717 4.717 0 0 1 367.56 74.624 A 4.759 4.759 0 0 1 369.306 74.093 A 5.935 5.935 0 0 1 369.962 74.058 A 6.537 6.537 0 0 1 371.147 74.158 Q 372.388 74.387 373.117 75.139 A 3.238 3.238 0 0 1 373.812 76.277 Q 373.999 76.778 374.087 77.402 A 8.625 8.625 0 0 1 374.164 78.6 L 374.164 86.7 Z M 299.716 85.102 L 299.58 85.102 L 299.184 86.7 L 297.835 86.7 L 297.835 69.073 L 299.716 69.073 L 299.716 73.355 A 39.206 39.206 0 0 1 299.695 74.68 Q 299.673 75.306 299.631 75.864 A 23.495 23.495 0 0 1 299.625 75.938 L 299.716 75.938 A 4.275 4.275 0 0 1 302.837 74.126 A 6.422 6.422 0 0 1 303.613 74.08 A 5.747 5.747 0 0 1 305.23 74.296 A 4.302 4.302 0 0 1 307.413 75.751 A 5.541 5.541 0 0 1 308.385 77.622 Q 308.767 78.856 308.767 80.481 A 11.026 11.026 0 0 1 308.621 82.336 Q 308.452 83.324 308.087 84.117 A 5.286 5.286 0 0 1 307.402 85.233 A 4.452 4.452 0 0 1 304.238 86.896 A 6.378 6.378 0 0 1 303.613 86.926 A 5.704 5.704 0 0 1 302.18 86.751 A 4.963 4.963 0 0 1 301.398 86.479 Q 300.396 86.031 299.716 85.102 Z M 331.775 85.148 L 331.775 86.586 A 1.85 1.85 0 0 1 331.555 86.673 Q 331.321 86.751 330.986 86.811 A 7.033 7.033 0 0 1 330.874 86.83 A 8.15 8.15 0 0 1 330.343 86.899 Q 330.056 86.926 329.803 86.926 A 4.912 4.912 0 0 1 328.356 86.731 Q 326.201 86.066 326.201 83.131 L 326.201 75.745 L 324.423 75.745 L 324.423 74.839 L 326.201 74.058 L 326.994 71.407 L 328.082 71.407 L 328.082 74.284 L 331.684 74.284 L 331.684 75.745 L 328.082 75.745 L 328.082 83.052 A 3.787 3.787 0 0 0 328.136 83.717 Q 328.201 84.082 328.344 84.371 A 1.824 1.824 0 0 0 328.614 84.774 A 1.747 1.747 0 0 0 329.688 85.346 A 2.513 2.513 0 0 0 330.075 85.374 A 6.176 6.176 0 0 0 330.98 85.31 A 5.694 5.694 0 0 0 331.038 85.301 A 10.172 10.172 0 0 0 331.31 85.254 Q 331.569 85.206 331.749 85.155 A 2.827 2.827 0 0 0 331.775 85.148 Z M 339.965 85.148 L 339.965 86.586 A 1.85 1.85 0 0 1 339.745 86.673 Q 339.511 86.751 339.176 86.811 A 7.033 7.033 0 0 1 339.064 86.83 A 8.15 8.15 0 0 1 338.533 86.899 Q 338.246 86.926 337.994 86.926 A 4.912 4.912 0 0 1 336.546 86.731 Q 334.391 86.066 334.391 83.131 L 334.391 75.745 L 332.613 75.745 L 332.613 74.839 L 334.391 74.058 L 335.184 71.407 L 336.272 71.407 L 336.272 74.284 L 339.874 74.284 L 339.874 75.745 L 336.272 75.745 L 336.272 83.052 A 3.787 3.787 0 0 0 336.326 83.717 Q 336.392 84.082 336.535 84.371 A 1.824 1.824 0 0 0 336.804 84.774 A 1.747 1.747 0 0 0 337.878 85.346 A 2.513 2.513 0 0 0 338.266 85.374 A 6.176 6.176 0 0 0 339.17 85.31 A 5.694 5.694 0 0 0 339.228 85.301 A 10.172 10.172 0 0 0 339.5 85.254 Q 339.759 85.206 339.94 85.155 A 2.827 2.827 0 0 0 339.965 85.148 Z M 322.596 82.37 A 9.713 9.713 0 0 0 322.769 80.481 A 11.036 11.036 0 0 0 322.765 80.182 Q 322.737 79.148 322.513 78.271 A 5.855 5.855 0 0 0 321.234 75.791 Q 319.699 74.058 317.093 74.058 A 7.304 7.304 0 0 0 315.781 74.17 A 4.974 4.974 0 0 0 312.879 75.751 A 5.195 5.195 0 0 0 312.241 76.636 Q 311.75 77.493 311.533 78.592 A 9.764 9.764 0 0 0 311.361 80.481 A 9.407 9.407 0 0 0 311.479 82.004 A 6.956 6.956 0 0 0 312.064 83.902 Q 312.766 85.363 314.057 86.145 A 5.236 5.236 0 0 0 315.259 86.679 A 6.039 6.039 0 0 0 317.014 86.926 A 7.302 7.302 0 0 0 318.289 86.82 A 5.013 5.013 0 0 0 321.239 85.221 Q 322.255 84.089 322.596 82.37 Z M 352.989 82.37 A 9.713 9.713 0 0 0 353.162 80.481 A 11.036 11.036 0 0 0 353.158 80.182 Q 353.13 79.148 352.906 78.271 A 5.855 5.855 0 0 0 351.627 75.791 Q 350.092 74.058 347.487 74.058 A 7.304 7.304 0 0 0 346.175 74.17 A 4.974 4.974 0 0 0 343.273 75.751 A 5.195 5.195 0 0 0 342.635 76.636 Q 342.143 77.493 341.926 78.592 A 9.764 9.764 0 0 0 341.755 80.481 A 9.407 9.407 0 0 0 341.873 82.004 A 6.956 6.956 0 0 0 342.457 83.902 Q 343.159 85.363 344.451 86.145 A 5.236 5.236 0 0 0 345.653 86.679 A 6.039 6.039 0 0 0 347.407 86.926 A 7.302 7.302 0 0 0 348.682 86.82 A 5.013 5.013 0 0 0 351.633 85.221 Q 352.648 84.089 352.989 82.37 Z M 313.31 80.481 Q 313.31 82.859 314.261 84.106 A 3.082 3.082 0 0 0 316.269 85.288 A 4.67 4.67 0 0 0 317.059 85.352 A 4.368 4.368 0 0 0 318.212 85.208 A 3.04 3.04 0 0 0 319.863 84.111 Q 320.575 83.189 320.757 81.63 A 9.905 9.905 0 0 0 320.82 80.481 A 9.383 9.383 0 0 0 320.731 79.144 Q 320.529 77.738 319.863 76.884 A 3.093 3.093 0 0 0 317.94 75.736 A 4.743 4.743 0 0 0 317.037 75.655 A 4.475 4.475 0 0 0 315.922 75.785 A 2.995 2.995 0 0 0 314.25 76.867 A 3.888 3.888 0 0 0 313.646 78.035 Q 313.467 78.572 313.384 79.228 A 9.937 9.937 0 0 0 313.31 80.481 Z M 343.703 80.481 Q 343.703 82.859 344.655 84.106 A 3.082 3.082 0 0 0 346.662 85.288 A 4.67 4.67 0 0 0 347.453 85.352 A 4.368 4.368 0 0 0 348.605 85.208 A 3.04 3.04 0 0 0 350.256 84.111 Q 350.968 83.189 351.151 81.63 A 9.905 9.905 0 0 0 351.214 80.481 A 9.383 9.383 0 0 0 351.125 79.144 Q 350.922 77.738 350.256 76.884 A 3.093 3.093 0 0 0 348.333 75.736 A 4.743 4.743 0 0 0 347.43 75.655 A 4.475 4.475 0 0 0 346.316 75.785 A 2.995 2.995 0 0 0 344.643 76.867 A 3.888 3.888 0 0 0 344.039 78.035 Q 343.86 78.572 343.777 79.228 A 9.937 9.937 0 0 0 343.703 80.481 Z M 303.341 75.655 Q 301.415 75.655 300.566 76.759 A 3.219 3.219 0 0 0 300.099 77.647 Q 299.785 78.528 299.728 79.868 A 14.488 14.488 0 0 0 299.716 80.481 A 12.434 12.434 0 0 0 299.778 81.766 Q 299.913 83.062 300.345 83.851 A 2.836 2.836 0 0 0 300.588 84.225 Q 301.37 85.235 302.999 85.34 A 6.046 6.046 0 0 0 303.386 85.352 A 3.749 3.749 0 0 0 304.451 85.209 A 2.704 2.704 0 0 0 305.969 84.089 Q 306.576 83.186 306.749 81.72 A 10.775 10.775 0 0 0 306.819 80.458 Q 306.819 78.16 306.055 76.971 A 3.12 3.12 0 0 0 305.969 76.844 A 2.742 2.742 0 0 0 304.223 75.739 A 4.349 4.349 0 0 0 303.341 75.655 Z" id="bottom_labelLayer" stroke="#777777" fill="#777777" style="stroke:#777777;fill:#777777" vector-effect="non-scaling-stroke"/></g></svg>