<svg width="377.5mm" height="304mm" viewBox="0 0 377.5 304" xmlns="http://www.w3.org/2000/svg" version="1.1" preserveAspectRatio="xMidYMid meet"><g id="svgGroup" stroke-linecap="round" fill-rule="evenodd" font-size="9pt" stroke="#000" stroke-width="0.25mm" fill="none" style="stroke:#000;stroke-width:0.25mm;fill:none"><path d="M 12.188 301 L 19.563 301 L 19.563 304 L 27.938 304 L 27.938 301 L 35.313 301 L 35.313 304 L 43.688 304 L 43.688 301 L 51.063 301 L 51.063 304 L 59.438 304 L 59.438 301 L 66.813 301 L 66.813 304 L 75.188 304 L 75.188 301 L 82.563 301 L 82.563 304 L 90.938 304 L 90.938 301 L 98.313 301 L 98.313 304 L 110.5 304 L 110.5 297.813 L 107.5 297.813 L 107.5 290.438 L 110.5 290.438 L 110.5 282.063 L 107.5 282.063 L 107.5 274.688 L 110.5 274.688 L 110.5 268.5 L 98.313 268.5 L 98.313 271.5 L 90.938 271.5 L 90.938 268.5 L 82.563 268.5 L 82.563 271.5 L 75.188 271.5 L 75.188 268.5 L 66.813 268.5 L 66.813 271.5 L 59.438 271.5 L 59.438 268.5 L 51.063 268.5 L 51.063 271.5 L 43.688 271.5 L 43.688 268.5 L 35.313 268.5 L 35.313 271.5 L 27.938 271.5 L 27.938 268.5 L 19.563 268.5 L 19.563 271.5 L 12.188 271.5 L 12.188 268.5 L 0 268.5 L 0 274.688 L 3 274.688 L 3 282.063 L 0 282.063 L 0 290.438 L 3 290.438 L 3 297.813 L 0 297.813 L 0 304 L 12.188 304 L 12.188 301 Z" id="front_outsideCutPath" stroke="#FF0000" stroke-width="0.1" style="stroke:#FF0000;stroke-width:0.1" vector-effect="non-scaling-stroke"/><path d="M 122.063 301 L 129.438 301 L 129.438 304 L 137.813 304 L 137.813 301 L 145.188 301 L 145.188 304 L 153.563 304 L 153.563 301 L 160.938 301 L 160.938 304 L 169.313 304 L 169.313 301 L 176.688 301 L 176.688 304 L 185.063 304 L 185.063 301 L 192.438 301 L 192.438 304 L 200.813 304 L 200.813 301 L 208.188 301 L 208.188 304 L 216.563 304 L 216.563 301 L 223.938 301 L 223.938 304 L 232.313 304 L 232.313 301 L 239.688 301 L 239.688 304 L 248.063 304 L 248.063 301 L 255.438 301 L 255.438 304 L 261 304 L 261 298.313 L 264 298.313 L 264 289.938 L 261 289.938 L 261 282.563 L 264 282.563 L 264 274.188 L 261 274.188 L 261 268.5 L 255.438 268.5 L 255.438 271.5 L 248.063 271.5 L 248.063 268.5 L 239.688 268.5 L 239.688 271.5 L 232.313 271.5 L 232.313 268.5 L 223.938 268.5 L 223.938 271.5 L 216.563 271.5 L 216.563 268.5 L 208.188 268.5 L 208.188 271.5 L 200.813 271.5 L 200.813 268.5 L 192.438 268.5 L 192.438 271.5 L 185.063 271.5 L 185.063 268.5 L 176.688 268.5 L 176.688 271.5 L 169.313 271.5 L 169.313 268.5 L 160.938 268.5 L 160.938 271.5 L 153.563 271.5 L 153.563 268.5 L 145.188 268.5 L 145.188 271.5 L 137.813 271.5 L 137.813 268.5 L 129.438 268.5 L 129.438 271.5 L 122.063 271.5 L 122.063 268.5 L 116.5 268.5 L 116.5 274.188 L 113.5 274.188 L 113.5 282.563 L 116.5 282.563 L 116.5 289.938 L 113.5 289.938 L 113.5 298.313 L 116.5 298.313 L 116.5 304 L 122.063 304 L 122.063 301 Z" id="left_outsideCutPath" stroke="#FF0000" stroke-width="0.1" style="stroke:#FF0000;stroke-width:0.1" vector-effect="non-scaling-stroke"/><path d="M 287.063 301 L 294.438 301 L 294.438 304 L 302.813 304 L 302.813 301 L 310.188 301 L 310.188 304 L 318.563 304 L 318.563 301 L 325.938 301 L 325.938 304 L 334.313 304 L 334.313 301 L 341.688 301 L 341.688 304 L 350.063 304 L 350.063 301 L 357.438 301 L 357.438 304 L 365.813 304 L 365.813 301 L 374.5 301 L 374.5 295.938 L 377.5 295.938 L 377.5 287.563 L 374.5 287.563 L 374.5 280.188 L 377.5 280.188 L 377.5 271.813 L 374.5 271.813 L 374.5 264.438 L 377.5 264.438 L 377.5 256.063 L 374.5 256.063 L 374.5 248.688 L 377.5 248.688 L 377.5 240.313 L 374.5 240.313 L 374.5 232.938 L 377.5 232.938 L 377.5 224.563 L 374.5 224.563 L 374.5 217.188 L 377.5 217.188 L 377.5 208.813 L 374.5 208.813 L 374.5 201.438 L 377.5 201.438 L 377.5 193.063 L 374.5 193.063 L 374.5 185.688 L 377.5 185.688 L 377.5 177.313 L 374.5 177.313 L 374.5 169.938 L 377.5 169.938 L 377.5 161.563 L 374.5 161.563 L 374.5 156.5 L 365.813 156.5 L 365.813 153.5 L 357.438 153.5 L 357.438 156.5 L 350.063 156.5 L 350.063 153.5 L 341.688 153.5 L 341.688 156.5 L 334.313 156.5 L 334.313 153.5 L 325.938 153.5 L 325.938 156.5 L 318.563 156.5 L 318.563 153.5 L 310.188 153.5 L 310.188 156.5 L 302.813 156.5 L 302.813 153.5 L 294.438 153.5 L 294.438 156.5 L 287.063 156.5 L 287.063 153.5 L 278.688 153.5 L 278.688 156.5 L 270 156.5 L 270 161.563 L 267 161.563 L 267 169.938 L 270 169.938 L 270 177.313 L 267 177.313 L 267 185.688 L 270 185.688 L 270 193.063 L 267 193.063 L 267 201.438 L 270 201.438 L 270 208.813 L 267 208.813 L 267 217.188 L 270 217.188 L 270 224.563 L 267 224.563 L 267 232.938 L 270 232.938 L 270 240.313 L 267 240.313 L 267 248.688 L 270 248.688 L 270 256.063 L 267 256.063 L 267 264.438 L 270 264.438 L 270 271.813 L 267 271.813 L 267 280.188 L 270 280.188 L 270 287.563 L 267 287.563 L 267 295.938 L 270 295.938 L 270 301 L 278.688 301 L 278.688 304 L 287.063 304 L 287.063 301 Z" id="top_outsideCutPath" stroke="#FF0000" stroke-width="0.1" style="stroke:#FF0000;stroke-width:0.1" vector-effect="non-scaling-stroke"/><path d="M 12.188 262.5 L 19.563 262.5 L 19.563 265.5 L 27.938 265.5 L 27.938 262.5 L 35.313 262.5 L 35.313 265.5 L 43.688 265.5 L 43.688 262.5 L 51.063 262.5 L 51.063 265.5 L 59.438 265.5 L 59.438 262.5 L 66.813 262.5 L 66.813 265.5 L 75.188 265.5 L 75.188 262.5 L 82.563 262.5 L 82.563 265.5 L 90.938 265.5 L 90.938 262.5 L 98.313 262.5 L 98.313 265.5 L 110.5 265.5 L 110.5 259.313 L 107.5 259.313 L 107.5 251.938 L 110.5 251.938 L 110.5 243.563 L 107.5 243.563 L 107.5 236.188 L 110.5 236.188 L 110.5 230 L 98.313 230 L 98.313 233 L 90.938 233 L 90.938 230 L 82.563 230 L 82.563 233 L 75.188 233 L 75.188 230 L 66.813 230 L 66.813 233 L 59.438 233 L 59.438 230 L 51.063 230 L 51.063 233 L 43.688 233 L 43.688 230 L 35.313 230 L 35.313 233 L 27.938 233 L 27.938 230 L 19.563 230 L 19.563 233 L 12.188 233 L 12.188 230 L 0 230 L 0 236.188 L 3 236.188 L 3 243.563 L 0 243.563 L 0 251.938 L 3 251.938 L 3 259.313 L 0 259.313 L 0 265.5 L 12.188 265.5 L 12.188 262.5 Z" id="back_outsideCutPath" stroke="#FF0000" stroke-width="0.1" style="stroke:#FF0000;stroke-width:0.1" vector-effect="non-scaling-stroke"/><path d="M 122.063 262.5 L 129.438 262.5 L 129.438 265.5 L 137.813 265.5 L 137.813 262.5 L 145.188 262.5 L 145.188 265.5 L 153.563 265.5 L 153.563 262.5 L 160.938 262.5 L 160.938 265.5 L 169.313 265.5 L 169.313 262.5 L 176.688 262.5 L 176.688 265.5 L 185.063 265.5 L 185.063 262.5 L 192.438 262.5 L 192.438 265.5 L 200.813 265.5 L 200.813 262.5 L 208.188 262.5 L 208.188 265.5 L 216.563 265.5 L 216.563 262.5 L 223.938 262.5 L 223.938 265.5 L 232.313 265.5 L 232.313 262.5 L 239.688 262.5 L 239.688 265.5 L 248.063 265.5 L 248.063 262.5 L 255.438 262.5 L 255.438 265.5 L 261 265.5 L 261 259.813 L 264 259.813 L 264 251.438 L 261 251.438 L 261 244.063 L 264 244.063 L 264 235.688 L 261 235.688 L 261 230 L 255.438 230 L 255.438 233 L 248.063 233 L 248.063 230 L 239.688 230 L 239.688 233 L 232.313 233 L 232.313 230 L 223.938 230 L 223.938 233 L 216.563 233 L 216.563 230 L 208.188 230 L 208.188 233 L 200.813 233 L 200.813 230 L 192.438 230 L 192.438 233 L 185.063 233 L 185.063 230 L 176.688 230 L 176.688 233 L 169.313 233 L 169.313 230 L 160.938 230 L 160.938 233 L 153.563 233 L 153.563 230 L 145.188 230 L 145.188 233 L 137.813 233 L 137.813 230 L 129.438 230 L 129.438 233 L 122.063 233 L 122.063 230 L 116.5 230 L 116.5 235.688 L 113.5 235.688 L 113.5 244.063 L 116.5 244.063 L 116.5 251.438 L 113.5 251.438 L 113.5 259.813 L 116.5 259.813 L 116.5 265.5 L 122.063 265.5 L 122.063 262.5 Z" id="right_outsideCutPath" stroke="#FF0000" stroke-width="0.1" style="stroke:#FF0000;stroke-width:0.1" vector-effect="non-scaling-stroke"/><path d="M 287.063 147.5 L 294.438 147.5 L 294.438 150.5 L 302.813 150.5 L 302.813 147.5 L 310.188 147.5 L 310.188 150.5 L 318.563 150.5 L 318.563 147.5 L 325.938 147.5 L 325.938 150.5 L 334.313 150.5 L 334.313 147.5 L 341.688 147.5 L 341.688 150.5 L 350.063 150.5 L 350.063 147.5 L 357.438 147.5 L 357.438 150.5 L 365.813 150.5 L 365.813 147.5 L 374.5 147.5 L 374.5 142.438 L 377.5 142.438 L 377.5 134.063 L 374.5 134.063 L 374.5 126.688 L 377.5 126.688 L 377.5 118.313 L 374.5 118.313 L 374.5 110.938 L 377.5 110.938 L 377.5 102.563 L 374.5 102.563 L 374.5 95.188 L 377.5 95.188 L 377.5 86.813 L 374.5 86.813 L 374.5 79.438 L 377.5 79.438 L 377.5 71.063 L 374.5 71.063 L 374.5 63.688 L 377.5 63.688 L 377.5 55.313 L 374.5 55.313 L 374.5 47.938 L 377.5 47.938 L 377.5 39.563 L 374.5 39.563 L 374.5 32.188 L 377.5 32.188 L 377.5 23.813 L 374.5 23.813 L 374.5 16.438 L 377.5 16.438 L 377.5 8.063 L 374.5 8.063 L 374.5 3 L 365.813 3 L 365.813 0 L 357.438 0 L 357.438 3 L 350.063 3 L 350.063 0 L 341.688 0 L 341.688 3 L 334.313 3 L 334.313 0 L 325.938 0 L 325.938 3 L 318.563 3 L 318.563 0 L 310.188 0 L 310.188 3 L 302.813 3 L 302.813 0 L 294.438 0 L 294.438 3 L 287.063 3 L 287.063 0 L 278.688 0 L 278.688 3 L 270 3 L 270 8.063 L 267 8.063 L 267 16.438 L 270 16.438 L 270 23.813 L 267 23.813 L 267 32.188 L 270 32.188 L 270 39.563 L 267 39.563 L 267 47.938 L 270 47.938 L 270 55.313 L 267 55.313 L 267 63.688 L 270 63.688 L 270 71.063 L 267 71.063 L 267 79.438 L 270 79.438 L 270 86.813 L 267 86.813 L 267 95.188 L 270 95.188 L 270 102.563 L 267 102.563 L 267 110.938 L 270 110.938 L 270 118.313 L 267 118.313 L 267 126.688 L 270 126.688 L 270 134.063 L 267 134.063 L 267 142.438 L 270 142.438 L 270 147.5 L 278.688 147.5 L 278.688 150.5 L 287.063 150.5 L 287.063 147.5 Z" id="bottom_outsideCutPath" stroke="#FF0000" stroke-width="0.1" style="stroke:#FF0000;stroke-width:0.1" vector-effect="non-scaling-stroke"/></g></svg>