0
SECTION
2
HEADER
9
$INSUNITS
70
4
0
ENDSEC
0
SECTION
2
TABLES
0
TABLE
2
LTYPE
0
LTYPE
72
65
70
64
2
CONTINUOUS
3
______
73
0
40
0
0
ENDTAB
0
TABLE
2
LAYER
0
ENDTAB
0
ENDSEC
0
SECTION
2
ENTITIES
0
LINE
8
front_outsideCutPath
10
12.1875
20
6
11
19.5625
21
6
0
LINE
8
front_outsideCutPath
10
19.5625
20
6
11
19.5625
21
3
0
LINE
8
front_outsideCutPath
10
19.5625
20
3
11
27.9375
21
3
0
LINE
8
front_outsideCutPath
10
27.9375
20
3
11
27.9375
21
6
0
LINE
8
front_outsideCutPath
10
27.9375
20
6
11
35.3125
21
6
0
LINE
8
front_outsideCutPath
10
35.3125
20
6
11
35.3125
21
3
0
LINE
8
front_outsideCutPath
10
35.3125
20
3
11
43.6875
21
3
0
LINE
8
front_outsideCutPath
10
43.6875
20
3
11
43.6875
21
6
0
LINE
8
front_outsideCutPath
10
43.6875
20
6
11
51.0625
21
6
0
LINE
8
front_outsideCutPath
10
51.0625
20
6
11
51.0625
21
3
0
LINE
8
front_outsideCutPath
10
51.0625
20
3
11
59.4375
21
3
0
LINE
8
front_outsideCutPath
10
59.4375
20
3
11
59.4375
21
6
0
LINE
8
front_outsideCutPath
10
59.4375
20
6
11
66.8125
21
6
0
LINE
8
front_outsideCutPath
10
66.8125
20
6
11
66.8125
21
3
0
LINE
8
front_outsideCutPath
10
66.8125
20
3
11
75.1875
21
3
0
LINE
8
front_outsideCutPath
10
75.1875
20
3
11
75.1875
21
6
0
LINE
8
front_outsideCutPath
10
75.1875
20
6
11
82.5625
21
6
0
LINE
8
front_outsideCutPath
10
82.5625
20
6
11
82.5625
21
3
0
LINE
8
front_outsideCutPath
10
82.5625
20
3
11
90.9375
21
3
0
LINE
8
front_outsideCutPath
10
90.9375
20
3
11
90.9375
21
6
0
LINE
8
front_outsideCutPath
10
90.9375
20
6
11
98.3125
21
6
0
LINE
8
front_outsideCutPath
10
98.3125
20
6
11
98.3125
21
3
0
LINE
8
front_outsideCutPath
10
98.3125
20
3
11
110.5
21
3
0
LINE
8
front_outsideCutPath
10
110.5
20
3
11
110.5
21
9.1875
0
LINE
8
front_outsideCutPath
10
110.5
20
9.1875
11
107.5
21
9.1875
0
LINE
8
front_outsideCutPath
10
107.5
20
9.1875
11
107.5
21
16.5625
0
LINE
8
front_outsideCutPath
10
107.5
20
16.5625
11
110.5
21
16.5625
0
LINE
8
front_outsideCutPath
10
110.5
20
16.5625
11
110.5
21
24.9375
0
LINE
8
front_outsideCutPath
10
110.5
20
24.9375
11
107.5
21
24.9375
0
LINE
8
front_outsideCutPath
10
107.5
20
24.9375
11
107.5
21
32.3125
0
LINE
8
front_outsideCutPath
10
107.5
20
32.3125
11
110.5
21
32.3125
0
LINE
8
front_outsideCutPath
10
110.5
20
32.3125
11
110.5
21
38.5
0
LINE
8
front_outsideCutPath
10
110.5
20
38.5
11
98.3125
21
38.5
0
LINE
8
front_outsideCutPath
10
98.3125
20
38.5
11
98.3125
21
35.5
0
LINE
8
front_outsideCutPath
10
98.3125
20
35.5
11
90.9375
21
35.5
0
LINE
8
front_outsideCutPath
10
90.9375
20
35.5
11
90.9375
21
38.5
0
LINE
8
front_outsideCutPath
10
90.9375
20
38.5
11
82.5625
21
38.5
0
LINE
8
front_outsideCutPath
10
82.5625
20
38.5
11
82.5625
21
35.5
0
LINE
8
front_outsideCutPath
10
82.5625
20
35.5
11
75.1875
21
35.5
0
LINE
8
front_outsideCutPath
10
75.1875
20
35.5
11
75.1875
21
38.5
0
LINE
8
front_outsideCutPath
10
75.1875
20
38.5
11
66.8125
21
38.5
0
LINE
8
front_outsideCutPath
10
66.8125
20
38.5
11
66.8125
21
35.5
0
LINE
8
front_outsideCutPath
10
66.8125
20
35.5
11
59.4375
21
35.5
0
LINE
8
front_outsideCutPath
10
59.4375
20
35.5
11
59.4375
21
38.5
0
LINE
8
front_outsideCutPath
10
59.4375
20
38.5
11
51.0625
21
38.5
0
LINE
8
front_outsideCutPath
10
51.0625
20
38.5
11
51.0625
21
35.5
0
LINE
8
front_outsideCutPath
10
51.0625
20
35.5
11
43.6875
21
35.5
0
LINE
8
front_outsideCutPath
10
43.6875
20
35.5
11
43.6875
21
38.5
0
LINE
8
front_outsideCutPath
10
43.6875
20
38.5
11
35.3125
21
38.5
0
LINE
8
front_outsideCutPath
10
35.3125
20
38.5
11
35.3125
21
35.5
0
LINE
8
front_outsideCutPath
10
35.3125
20
35.5
11
27.9375
21
35.5
0
LINE
8
front_outsideCutPath
10
27.9375
20
35.5
11
27.9375
21
38.5
0
LINE
8
front_outsideCutPath
10
27.9375
20
38.5
11
19.5625
21
38.5
0
LINE
8
front_outsideCutPath
10
19.5625
20
38.5
11
19.5625
21
35.5
0
LINE
8
front_outsideCutPath
10
19.5625
20
35.5
11
12.1875
21
35.5
0
LINE
8
front_outsideCutPath
10
12.1875
20
35.5
11
12.1875
21
38.5
0
LINE
8
front_outsideCutPath
10
12.1875
20
38.5
11
0
21
38.5
0
LINE
8
front_outsideCutPath
10
0
20
38.5
11
0
21
32.3125
0
LINE
8
front_outsideCutPath
10
0
20
32.3125
11
3
21
32.3125
0
LINE
8
front_outsideCutPath
10
3
20
32.3125
11
3
21
24.9375
0
LINE
8
front_outsideCutPath
10
3
20
24.9375
11
0
21
24.9375
0
LINE
8
front_outsideCutPath
10
0
20
24.9375
11
0
21
16.5625
0
LINE
8
front_outsideCutPath
10
0
20
16.5625
11
3
21
16.5625
0
LINE
8
front_outsideCutPath
10
3
20
16.5625
11
3
21
9.1875
0
LINE
8
front_outsideCutPath
10
3
20
9.1875
11
0
21
9.1875
0
LINE
8
front_outsideCutPath
10
0
20
9.1875
11
0
21
3
0
LINE
8
front_outsideCutPath
10
0
20
3
11
12.1875
21
3
0
LINE
8
front_outsideCutPath
10
12.1875
20
3
11
12.1875
21
6
0
LINE
8
left_outsideCutPath
10
122.0625
20
6
11
129.4375
21
6
0
LINE
8
left_outsideCutPath
10
129.4375
20
6
11
129.4375
21
3
0
LINE
8
left_outsideCutPath
10
129.4375
20
3
11
137.8125
21
3
0
LINE
8
left_outsideCutPath
10
137.8125
20
3
11
137.8125
21
6
0
LINE
8
left_outsideCutPath
10
137.8125
20
6
11
145.1875
21
6
0
LINE
8
left_outsideCutPath
10
145.1875
20
6
11
145.1875
21
3
0
LINE
8
left_outsideCutPath
10
145.1875
20
3
11
153.5625
21
3
0
LINE
8
left_outsideCutPath
10
153.5625
20
3
11
153.5625
21
6
0
LINE
8
left_outsideCutPath
10
153.5625
20
6
11
160.9375
21
6
0
LINE
8
left_outsideCutPath
10
160.9375
20
6
11
160.9375
21
3
0
LINE
8
left_outsideCutPath
10
160.9375
20
3
11
169.3125
21
3
0
LINE
8
left_outsideCutPath
10
169.3125
20
3
11
169.3125
21
6
0
LINE
8
left_outsideCutPath
10
169.3125
20
6
11
176.6875
21
6
0
LINE
8
left_outsideCutPath
10
176.6875
20
6
11
176.6875
21
3
0
LINE
8
left_outsideCutPath
10
176.6875
20
3
11
185.0625
21
3
0
LINE
8
left_outsideCutPath
10
185.0625
20
3
11
185.0625
21
6
0
LINE
8
left_outsideCutPath
10
185.0625
20
6
11
192.4375
21
6
0
LINE
8
left_outsideCutPath
10
192.4375
20
6
11
192.4375
21
3
0
LINE
8
left_outsideCutPath
10
192.4375
20
3
11
200.8125
21
3
0
LINE
8
left_outsideCutPath
10
200.8125
20
3
11
200.8125
21
6
0
LINE
8
left_outsideCutPath
10
200.8125
20
6
11
208.1875
21
6
0
LINE
8
left_outsideCutPath
10
208.1875
20
6
11
208.1875
21
3
0
LINE
8
left_outsideCutPath
10
208.1875
20
3
11
216.5625
21
3
0
LINE
8
left_outsideCutPath
10
216.5625
20
3
11
216.5625
21
6
0
LINE
8
left_outsideCutPath
10
216.5625
20
6
11
223.9375
21
6
0
LINE
8
left_outsideCutPath
10
223.9375
20
6
11
223.9375
21
3
0
LINE
8
left_outsideCutPath
10
223.9375
20
3
11
232.3125
21
3
0
LINE
8
left_outsideCutPath
10
232.3125
20
3
11
232.3125
21
6
0
LINE
8
left_outsideCutPath
10
232.3125
20
6
11
239.6875
21
6
0
LINE
8
left_outsideCutPath
10
239.6875
20
6
11
239.6875
21
3
0
LINE
8
left_outsideCutPath
10
239.6875
20
3
11
248.0625
21
3
0
LINE
8
left_outsideCutPath
10
248.0625
20
3
11
248.0625
21
6
0
LINE
8
left_outsideCutPath
10
248.0625
20
6
11
255.4375
21
6
0
LINE
8
left_outsideCutPath
10
255.4375
20
6
11
255.4375
21
3
0
LINE
8
left_outsideCutPath
10
255.4375
20
3
11
261
21
3
0
LINE
8
left_outsideCutPath
10
261
20
3
11
261
21
8.6875
0
LINE
8
left_outsideCutPath
10
261
20
8.6875
11
264
21
8.6875
0
LINE
8
left_outsideCutPath
10
264
20
8.6875
11
264
21
17.0625
0
LINE
8
left_outsideCutPath
10
264
20
17.0625
11
261
21
17.0625
0
LINE
8
left_outsideCutPath
10
261
20
17.0625
11
261
21
24.4375
0
LINE
8
left_outsideCutPath
10
261
20
24.4375
11
264
21
24.4375
0
LINE
8
left_outsideCutPath
10
264
20
24.4375
11
264
21
32.8125
0
LINE
8
left_outsideCutPath
10
264
20
32.8125
11
261
21
32.8125
0
LINE
8
left_outsideCutPath
10
261
20
32.8125
11
261
21
38.5
0
LINE
8
left_outsideCutPath
10
261
20
38.5
11
255.4375
21
38.5
0
LINE
8
left_outsideCutPath
10
255.4375
20
38.5
11
255.4375
21
35.5
0
LINE
8
left_outsideCutPath
10
255.4375
20
35.5
11
248.0625
21
35.5
0
LINE
8
left_outsideCutPath
10
248.0625
20
35.5
11
248.0625
21
38.5
0
LINE
8
left_outsideCutPath
10
248.0625
20
38.5
11
239.6875
21
38.5
0
LINE
8
left_outsideCutPath
10
239.6875
20
38.5
11
239.6875
21
35.5
0
LINE
8
left_outsideCutPath
10
239.6875
20
35.5
11
232.3125
21
35.5
0
LINE
8
left_outsideCutPath
10
232.3125
20
35.5
11
232.3125
21
38.5
0
LINE
8
left_outsideCutPath
10
232.3125
20
38.5
11
223.9375
21
38.5
0
LINE
8
left_outsideCutPath
10
223.9375
20
38.5
11
223.9375
21
35.5
0
LINE
8
left_outsideCutPath
10
223.9375
20
35.5
11
216.5625
21
35.5
0
LINE
8
left_outsideCutPath
10
216.5625
20
35.5
11
216.5625
21
38.5
0
LINE
8
left_outsideCutPath
10
216.5625
20
38.5
11
208.1875
21
38.5
0
LINE
8
left_outsideCutPath
10
208.1875
20
38.5
11
208.1875
21
35.5
0
LINE
8
left_outsideCutPath
10
208.1875
20
35.5
11
200.8125
21
35.5
0
LINE
8
left_outsideCutPath
10
200.8125
20
35.5
11
200.8125
21
38.5
0
LINE
8
left_outsideCutPath
10
200.8125
20
38.5
11
192.4375
21
38.5
0
LINE
8
left_outsideCutPath
10
192.4375
20
38.5
11
192.4375
21
35.5
0
LINE
8
left_outsideCutPath
10
192.4375
20
35.5
11
185.0625
21
35.5
0
LINE
8
left_outsideCutPath
10
185.0625
20
35.5
11
185.0625
21
38.5
0
LINE
8
left_outsideCutPath
10
185.0625
20
38.5
11
176.6875
21
38.5
0
LINE
8
left_outsideCutPath
10
176.6875
20
38.5
11
176.6875
21
35.5
0
LINE
8
left_outsideCutPath
10
176.6875
20
35.5
11
169.3125
21
35.5
0
LINE
8
left_outsideCutPath
10
169.3125
20
35.5
11
169.3125
21
38.5
0
LINE
8
left_outsideCutPath
10
169.3125
20
38.5
11
160.9375
21
38.5
0
LINE
8
left_outsideCutPath
10
160.9375
20
38.5
11
160.9375
21
35.5
0
LINE
8
left_outsideCutPath
10
160.9375
20
35.5
11
153.5625
21
35.5
0
LINE
8
left_outsideCutPath
10
153.5625
20
35.5
11
153.5625
21
38.5
0
LINE
8
left_outsideCutPath
10
153.5625
20
38.5
11
145.1875
21
38.5
0
LINE
8
left_outsideCutPath
10
145.1875
20
38.5
11
145.1875
21
35.5
0
LINE
8
left_outsideCutPath
10
145.1875
20
35.5
11
137.8125
21
35.5
0
LINE
8
left_outsideCutPath
10
137.8125
20
35.5
11
137.8125
21
38.5
0
LINE
8
left_outsideCutPath
10
137.8125
20
38.5
11
129.4375
21
38.5
0
LINE
8
left_outsideCutPath
10
129.4375
20
38.5
11
129.4375
21
35.5
0
LINE
8
left_outsideCutPath
10
129.4375
20
35.5
11
122.0625
21
35.5
0
LINE
8
left_outsideCutPath
10
122.0625
20
35.5
11
122.0625
21
38.5
0
LINE
8
left_outsideCutPath
10
122.0625
20
38.5
11
116.5
21
38.5
0
LINE
8
left_outsideCutPath
10
116.5
20
38.5
11
116.5
21
32.8125
0
LINE
8
left_outsideCutPath
10
116.5
20
32.8125
11
113.5
21
32.8125
0
LINE
8
left_outsideCutPath
10
113.5
20
32.8125
11
113.5
21
24.4375
0
LINE
8
left_outsideCutPath
10
113.5
20
24.4375
11
116.5
21
24.4375
0
LINE
8
left_outsideCutPath
10
116.5
20
24.4375
11
116.5
21
17.0625
0
LINE
8
left_outsideCutPath
10
116.5
20
17.0625
11
113.5
21
17.0625
0
LINE
8
left_outsideCutPath
10
113.5
20
17.0625
11
113.5
21
8.6875
0
LINE
8
left_outsideCutPath
10
113.5
20
8.6875
11
116.5
21
8.6875
0
LINE
8
left_outsideCutPath
10
116.5
20
8.6875
11
116.5
21
3
0
LINE
8
left_outsideCutPath
10
116.5
20
3
11
122.0625
21
3
0
LINE
8
left_outsideCutPath
10
122.0625
20
3
11
122.0625
21
6
0
LINE
8
top_outsideCutPath
10
287.0625
20
6
11
294.4375
21
6
0
LINE
8
top_outsideCutPath
10
294.4375
20
6
11
294.4375
21
3
0
LINE
8
top_outsideCutPath
10
294.4375
20
3
11
302.8125
21
3
0
LINE
8
top_outsideCutPath
10
302.8125
20
3
11
302.8125
21
6
0
LINE
8
top_outsideCutPath
10
302.8125
20
6
11
310.1875
21
6
0
LINE
8
top_outsideCutPath
10
310.1875
20
6
11
310.1875
21
3
0
LINE
8
top_outsideCutPath
10
310.1875
20
3
11
318.5625
21
3
0
LINE
8
top_outsideCutPath
10
318.5625
20
3
11
318.5625
21
6
0
LINE
8
top_outsideCutPath
10
318.5625
20
6
11
325.9375
21
6
0
LINE
8
top_outsideCutPath
10
325.9375
20
6
11
325.9375
21
3
0
LINE
8
top_outsideCutPath
10
325.9375
20
3
11
334.3125
21
3
0
LINE
8
top_outsideCutPath
10
334.3125
20
3
11
334.3125
21
6
0
LINE
8
top_outsideCutPath
10
334.3125
20
6
11
341.6875
21
6
0
LINE
8
top_outsideCutPath
10
341.6875
20
6
11
341.6875
21
3
0
LINE
8
top_outsideCutPath
10
341.6875
20
3
11
350.0625
21
3
0
LINE
8
top_outsideCutPath
10
350.0625
20
3
11
350.0625
21
6
0
LINE
8
top_outsideCutPath
10
350.0625
20
6
11
357.4375
21
6
0
LINE
8
top_outsideCutPath
10
357.4375
20
6
11
357.4375
21
3
0
LINE
8
top_outsideCutPath
10
357.4375
20
3
11
365.8125
21
3
0
LINE
8
top_outsideCutPath
10
365.8125
20
3
11
365.8125
21
6
0
LINE
8
top_outsideCutPath
10
365.8125
20
6
11
374.5
21
6
0
LINE
8
top_outsideCutPath
10
374.5
20
6
11
374.5
21
11.0625
0
LINE
8
top_outsideCutPath
10
374.5
20
11.0625
11
377.5
21
11.0625
0
LINE
8
top_outsideCutPath
10
377.5
20
11.0625
11
377.5
21
19.4375
0
LINE
8
top_outsideCutPath
10
377.5
20
19.4375
11
374.5
21
19.4375
0
LINE
8
top_outsideCutPath
10
374.5
20
19.4375
11
374.5
21
26.8125
0
LINE
8
top_outsideCutPath
10
374.5
20
26.8125
11
377.5
21
26.8125
0
LINE
8
top_outsideCutPath
10
377.5
20
26.8125
11
377.5
21
35.1875
0
LINE
8
top_outsideCutPath
10
377.5
20
35.1875
11
374.5
21
35.1875
0
LINE
8
top_outsideCutPath
10
374.5
20
35.1875
11
374.5
21
42.5625
0
LINE
8
top_outsideCutPath
10
374.5
20
42.5625
11
377.5
21
42.5625
0
LINE
8
top_outsideCutPath
10
377.5
20
42.5625
11
377.5
21
50.9375
0
LINE
8
top_outsideCutPath
10
377.5
20
50.9375
11
374.5
21
50.9375
0
LINE
8
top_outsideCutPath
10
374.5
20
50.9375
11
374.5
21
58.3125
0
LINE
8
top_outsideCutPath
10
374.5
20
58.3125
11
377.5
21
58.3125
0
LINE
8
top_outsideCutPath
10
377.5
20
58.3125
11
377.5
21
66.6875
0
LINE
8
top_outsideCutPath
10
377.5
20
66.6875
11
374.5
21
66.6875
0
LINE
8
top_outsideCutPath
10
374.5
20
66.6875
11
374.5
21
74.0625
0
LINE
8
top_outsideCutPath
10
374.5
20
74.0625
11
377.5
21
74.0625
0
LINE
8
top_outsideCutPath
10
377.5
20
74.0625
11
377.5
21
82.4375
0
LINE
8
top_outsideCutPath
10
377.5
20
82.4375
11
374.5
21
82.4375
0
LINE
8
top_outsideCutPath
10
374.5
20
82.4375
11
374.5
21
89.8125
0
LINE
8
top_outsideCutPath
10
374.5
20
89.8125
11
377.5
21
89.8125
0
LINE
8
top_outsideCutPath
10
377.5
20
89.8125
11
377.5
21
98.1875
0
LINE
8
top_outsideCutPath
10
377.5
20
98.1875
11
374.5
21
98.1875
0
LINE
8
top_outsideCutPath
10
374.5
20
98.1875
11
374.5
21
105.5625
0
LINE
8
top_outsideCutPath
10
374.5
20
105.5625
11
377.5
21
105.5625
0
LINE
8
top_outsideCutPath
10
377.5
20
105.5625
11
377.5
21
113.9375
0
LINE
8
top_outsideCutPath
10
377.5
20
113.9375
11
374.5
21
113.9375
0
LINE
8
top_outsideCutPath
10
374.5
20
113.9375
11
374.5
21
121.3125
0
LINE
8
top_outsideCutPath
10
374.5
20
121.3125
11
377.5
21
121.3125
0
LINE
8
top_outsideCutPath
10
377.5
20
121.3125
11
377.5
21
129.6875
0
LINE
8
top_outsideCutPath
10
377.5
20
129.6875
11
374.5
21
129.6875
0
LINE
8
top_outsideCutPath
10
374.5
20
129.6875
11
374.5
21
137.0625
0
LINE
8
top_outsideCutPath
10
374.5
20
137.0625
11
377.5
21
137.0625
0
LINE
8
top_outsideCutPath
10
377.5
20
137.0625
11
377.5
21
145.4375
0
LINE
8
top_outsideCutPath
10
377.5
20
145.4375
11
374.5
21
145.4375
0
LINE
8
top_outsideCutPath
10
374.5
20
145.4375
11
374.5
21
150.5
0
LINE
8
top_outsideCutPath
10
374.5
20
150.5
11
365.8125
21
150.5
0
LINE
8
top_outsideCutPath
10
365.8125
20
150.5
11
365.8125
21
153.5
0
LINE
8
top_outsideCutPath
10
365.8125
20
153.5
11
357.4375
21
153.5
0
LINE
8
top_outsideCutPath
10
357.4375
20
153.5
11
357.4375
21
150.5
0
LINE
8
top_outsideCutPath
10
357.4375
20
150.5
11
350.0625
21
150.5
0
LINE
8
top_outsideCutPath
10
350.0625
20
150.5
11
350.0625
21
153.5
0
LINE
8
top_outsideCutPath
10
350.0625
20
153.5
11
341.6875
21
153.5
0
LINE
8
top_outsideCutPath
10
341.6875
20
153.5
11
341.6875
21
150.5
0
LINE
8
top_outsideCutPath
10
341.6875
20
150.5
11
334.3125
21
150.5
0
LINE
8
top_outsideCutPath
10
334.3125
20
150.5
11
334.3125
21
153.5
0
LINE
8
top_outsideCutPath
10
334.3125
20
153.5
11
325.9375
21
153.5
0
LINE
8
top_outsideCutPath
10
325.9375
20
153.5
11
325.9375
21
150.5
0
LINE
8
top_outsideCutPath
10
325.9375
20
150.5
11
318.5625
21
150.5
0
LINE
8
top_outsideCutPath
10
318.5625
20
150.5
11
318.5625
21
153.5
0
LINE
8
top_outsideCutPath
10
318.5625
20
153.5
11
310.1875
21
153.5
0
LINE
8
top_outsideCutPath
10
310.1875
20
153.5
11
310.1875
21
150.5
0
LINE
8
top_outsideCutPath
10
310.1875
20
150.5
11
302.8125
21
150.5
0
LINE
8
top_outsideCutPath
10
302.8125
20
150.5
11
302.8125
21
153.5
0
LINE
8
top_outsideCutPath
10
302.8125
20
153.5
11
294.4375
21
153.5
0
LINE
8
top_outsideCutPath
10
294.4375
20
153.5
11
294.4375
21
150.5
0
LINE
8
top_outsideCutPath
10
294.4375
20
150.5
11
287.0625
21
150.5
0
LINE
8
top_outsideCutPath
10
287.0625
20
150.5
11
287.0625
21
153.5
0
LINE
8
top_outsideCutPath
10
287.0625
20
153.5
11
278.6875
21
153.5
0
LINE
8
top_outsideCutPath
10
278.6875
20
153.5
11
278.6875
21
150.5
0
LINE
8
top_outsideCutPath
10
278.6875
20
150.5
11
270
21
150.5
0
LINE
8
top_outsideCutPath
10
270
20
150.5
11
270
21
145.4375
0
LINE
8
top_outsideCutPath
10
270
20
145.4375
11
267
21
145.4375
0
LINE
8
top_outsideCutPath
10
267
20
145.4375
11
267
21
137.0625
0
LINE
8
top_outsideCutPath
10
267
20
137.0625
11
270
21
137.0625
0
LINE
8
top_outsideCutPath
10
270
20
137.0625
11
270
21
129.6875
0
LINE
8
top_outsideCutPath
10
270
20
129.6875
11
267
21
129.6875
0
LINE
8
top_outsideCutPath
10
267
20
129.6875
11
267
21
121.3125
0
LINE
8
top_outsideCutPath
10
267
20
121.3125
11
270
21
121.3125
0
LINE
8
top_outsideCutPath
10
270
20
121.3125
11
270
21
113.9375
0
LINE
8
top_outsideCutPath
10
270
20
113.9375
11
267
21
113.9375
0
LINE
8
top_outsideCutPath
10
267
20
113.9375
11
267
21
105.5625
0
LINE
8
top_outsideCutPath
10
267
20
105.5625
11
270
21
105.5625
0
LINE
8
top_outsideCutPath
10
270
20
105.5625
11
270
21
98.1875
0
LINE
8
top_outsideCutPath
10
270
20
98.1875
11
267
21
98.1875
0
LINE
8
top_outsideCutPath
10
267
20
98.1875
11
267
21
89.8125
0
LINE
8
top_outsideCutPath
10
267
20
89.8125
11
270
21
89.8125
0
LINE
8
top_outsideCutPath
10
270
20
89.8125
11
270
21
82.4375
0
LINE
8
top_outsideCutPath
10
270
20
82.4375
11
267
21
82.4375
0
LINE
8
top_outsideCutPath
10
267
20
82.4375
11
267
21
74.0625
0
LINE
8
top_outsideCutPath
10
267
20
74.0625
11
270
21
74.0625
0
LINE
8
top_outsideCutPath
10
270
20
74.0625
11
270
21
66.6875
0
LINE
8
top_outsideCutPath
10
270
20
66.6875
11
267
21
66.6875
0
LINE
8
top_outsideCutPath
10
267
20
66.6875
11
267
21
58.3125
0
LINE
8
top_outsideCutPath
10
267
20
58.3125
11
270
21
58.3125
0
LINE
8
top_outsideCutPath
10
270
20
58.3125
11
270
21
50.9375
0
LINE
8
top_outsideCutPath
10
270
20
50.9375
11
267
21
50.9375
0
LINE
8
top_outsideCutPath
10
267
20
50.9375
11
267
21
42.5625
0
LINE
8
top_outsideCutPath
10
267
20
42.5625
11
270
21
42.5625
0
LINE
8
top_outsideCutPath
10
270
20
42.5625
11
270
21
35.1875
0
LINE
8
top_outsideCutPath
10
270
20
35.1875
11
267
21
35.1875
0
LINE
8
top_outsideCutPath
10
267
20
35.1875
11
267
21
26.8125
0
LINE
8
top_outsideCutPath
10
267
20
26.8125
11
270
21
26.8125
0
LINE
8
top_outsideCutPath
10
270
20
26.8125
11
270
21
19.4375
0
LINE
8
top_outsideCutPath
10
270
20
19.4375
11
267
21
19.4375
0
LINE
8
top_outsideCutPath
10
267
20
19.4375
11
267
21
11.0625
0
LINE
8
top_outsideCutPath
10
267
20
11.0625
11
270
21
11.0625
0
LINE
8
top_outsideCutPath
10
270
20
11.0625
11
270
21
6
0
LINE
8
top_outsideCutPath
10
270
20
6
11
278.6875
21
6
0
LINE
8
top_outsideCutPath
10
278.6875
20
6
11
278.6875
21
3
0
LINE
8
top_outsideCutPath
10
278.6875
20
3
11
287.0625
21
3
0
LINE
8
top_outsideCutPath
10
287.0625
20
3
11
287.0625
21
6
0
LINE
8
back_outsideCutPath
10
12.1875
20
44.5
11
19.5625
21
44.5
0
LINE
8
back_outsideCutPath
10
19.5625
20
44.5
11
19.5625
21
41.5
0
LINE
8
back_outsideCutPath
10
19.5625
20
41.5
11
27.9375
21
41.5
0
LINE
8
back_outsideCutPath
10
27.9375
20
41.5
11
27.9375
21
44.5
0
LINE
8
back_outsideCutPath
10
27.9375
20
44.5
11
35.3125
21
44.5
0
LINE
8
back_outsideCutPath
10
35.3125
20
44.5
11
35.3125
21
41.5
0
LINE
8
back_outsideCutPath
10
35.3125
20
41.5
11
43.6875
21
41.5
0
LINE
8
back_outsideCutPath
10
43.6875
20
41.5
11
43.6875
21
44.5
0
LINE
8
back_outsideCutPath
10
43.6875
20
44.5
11
51.0625
21
44.5
0
LINE
8
back_outsideCutPath
10
51.0625
20
44.5
11
51.0625
21
41.5
0
LINE
8
back_outsideCutPath
10
51.0625
20
41.5
11
59.4375
21
41.5
0
LINE
8
back_outsideCutPath
10
59.4375
20
41.5
11
59.4375
21
44.5
0
LINE
8
back_outsideCutPath
10
59.4375
20
44.5
11
66.8125
21
44.5
0
LINE
8
back_outsideCutPath
10
66.8125
20
44.5
11
66.8125
21
41.5
0
LINE
8
back_outsideCutPath
10
66.8125
20
41.5
11
75.1875
21
41.5
0
LINE
8
back_outsideCutPath
10
75.1875
20
41.5
11
75.1875
21
44.5
0
LINE
8
back_outsideCutPath
10
75.1875
20
44.5
11
82.5625
21
44.5
0
LINE
8
back_outsideCutPath
10
82.5625
20
44.5
11
82.5625
21
41.5
0
LINE
8
back_outsideCutPath
10
82.5625
20
41.5
11
90.9375
21
41.5
0
LINE
8
back_outsideCutPath
10
90.9375
20
41.5
11
90.9375
21
44.5
0
LINE
8
back_outsideCutPath
10
90.9375
20
44.5
11
98.3125
21
44.5
0
LINE
8
back_outsideCutPath
10
98.3125
20
44.5
11
98.3125
21
41.5
0
LINE
8
back_outsideCutPath
10
98.3125
20
41.5
11
110.5
21
41.5
0
LINE
8
back_outsideCutPath
10
110.5
20
41.5
11
110.5
21
47.6875
0
LINE
8
back_outsideCutPath
10
110.5
20
47.6875
11
107.5
21
47.6875
0
LINE
8
back_outsideCutPath
10
107.5
20
47.6875
11
107.5
21
55.0625
0
LINE
8
back_outsideCutPath
10
107.5
20
55.0625
11
110.5
21
55.0625
0
LINE
8
back_outsideCutPath
10
110.5
20
55.0625
11
110.5
21
63.4375
0
LINE
8
back_outsideCutPath
10
110.5
20
63.4375
11
107.5
21
63.4375
0
LINE
8
back_outsideCutPath
10
107.5
20
63.4375
11
107.5
21
70.8125
0
LINE
8
back_outsideCutPath
10
107.5
20
70.8125
11
110.5
21
70.8125
0
LINE
8
back_outsideCutPath
10
110.5
20
70.8125
11
110.5
21
77
0
LINE
8
back_outsideCutPath
10
110.5
20
77
11
98.3125
21
77
0
LINE
8
back_outsideCutPath
10
98.3125
20
77
11
98.3125
21
74
0
LINE
8
back_outsideCutPath
10
98.3125
20
74
11
90.9375
21
74
0
LINE
8
back_outsideCutPath
10
90.9375
20
74
11
90.9375
21
77
0
LINE
8
back_outsideCutPath
10
90.9375
20
77
11
82.5625
21
77
0
LINE
8
back_outsideCutPath
10
82.5625
20
77
11
82.5625
21
74
0
LINE
8
back_outsideCutPath
10
82.5625
20
74
11
75.1875
21
74
0
LINE
8
back_outsideCutPath
10
75.1875
20
74
11
75.1875
21
77
0
LINE
8
back_outsideCutPath
10
75.1875
20
77
11
66.8125
21
77
0
LINE
8
back_outsideCutPath
10
66.8125
20
77
11
66.8125
21
74
0
LINE
8
back_outsideCutPath
10
66.8125
20
74
11
59.4375
21
74
0
LINE
8
back_outsideCutPath
10
59.4375
20
74
11
59.4375
21
77
0
LINE
8
back_outsideCutPath
10
59.4375
20
77
11
51.0625
21
77
0
LINE
8
back_outsideCutPath
10
51.0625
20
77
11
51.0625
21
74
0
LINE
8
back_outsideCutPath
10
51.0625
20
74
11
43.6875
21
74
0
LINE
8
back_outsideCutPath
10
43.6875
20
74
11
43.6875
21
77
0
LINE
8
back_outsideCutPath
10
43.6875
20
77
11
35.3125
21
77
0
LINE
8
back_outsideCutPath
10
35.3125
20
77
11
35.3125
21
74
0
LINE
8
back_outsideCutPath
10
35.3125
20
74
11
27.9375
21
74
0
LINE
8
back_outsideCutPath
10
27.9375
20
74
11
27.9375
21
77
0
LINE
8
back_outsideCutPath
10
27.9375
20
77
11
19.5625
21
77
0
LINE
8
back_outsideCutPath
10
19.5625
20
77
11
19.5625
21
74
0
LINE
8
back_outsideCutPath
10
19.5625
20
74
11
12.1875
21
74
0
LINE
8
back_outsideCutPath
10
12.1875
20
74
11
12.1875
21
77
0
LINE
8
back_outsideCutPath
10
12.1875
20
77
11
0
21
77
0
LINE
8
back_outsideCutPath
10
0
20
77
11
0
21
70.8125
0
LINE
8
back_outsideCutPath
10
0
20
70.8125
11
3
21
70.8125
0
LINE
8
back_outsideCutPath
10
3
20
70.8125
11
3
21
63.4375
0
LINE
8
back_outsideCutPath
10
3
20
63.4375
11
0
21
63.4375
0
LINE
8
back_outsideCutPath
10
0
20
63.4375
11
0
21
55.0625
0
LINE
8
back_outsideCutPath
10
0
20
55.0625
11
3
21
55.0625
0
LINE
8
back_outsideCutPath
10
3
20
55.0625
11
3
21
47.6875
0
LINE
8
back_outsideCutPath
10
3
20
47.6875
11
0
21
47.6875
0
LINE
8
back_outsideCutPath
10
0
20
47.6875
11
0
21
41.5
0
LINE
8
back_outsideCutPath
10
0
20
41.5
11
12.1875
21
41.5
0
LINE
8
back_outsideCutPath
10
12.1875
20
41.5
11
12.1875
21
44.5
0
LINE
8
right_outsideCutPath
10
122.0625
20
44.5
11
129.4375
21
44.5
0
LINE
8
right_outsideCutPath
10
129.4375
20
44.5
11
129.4375
21
41.5
0
LINE
8
right_outsideCutPath
10
129.4375
20
41.5
11
137.8125
21
41.5
0
LINE
8
right_outsideCutPath
10
137.8125
20
41.5
11
137.8125
21
44.5
0
LINE
8
right_outsideCutPath
10
137.8125
20
44.5
11
145.1875
21
44.5
0
LINE
8
right_outsideCutPath
10
145.1875
20
44.5
11
145.1875
21
41.5
0
LINE
8
right_outsideCutPath
10
145.1875
20
41.5
11
153.5625
21
41.5
0
LINE
8
right_outsideCutPath
10
153.5625
20
41.5
11
153.5625
21
44.5
0
LINE
8
right_outsideCutPath
10
153.5625
20
44.5
11
160.9375
21
44.5
0
LINE
8
right_outsideCutPath
10
160.9375
20
44.5
11
160.9375
21
41.5
0
LINE
8
right_outsideCutPath
10
160.9375
20
41.5
11
169.3125
21
41.5
0
LINE
8
right_outsideCutPath
10
169.3125
20
41.5
11
169.3125
21
44.5
0
LINE
8
right_outsideCutPath
10
169.3125
20
44.5
11
176.6875
21
44.5
0
LINE
8
right_outsideCutPath
10
176.6875
20
44.5
11
176.6875
21
41.5
0
LINE
8
right_outsideCutPath
10
176.6875
20
41.5
11
185.0625
21
41.5
0
LINE
8
right_outsideCutPath
10
185.0625
20
41.5
11
185.0625
21
44.5
0
LINE
8
right_outsideCutPath
10
185.0625
20
44.5
11
192.4375
21
44.5
0
LINE
8
right_outsideCutPath
10
192.4375
20
44.5
11
192.4375
21
41.5
0
LINE
8
right_outsideCutPath
10
192.4375
20
41.5
11
200.8125
21
41.5
0
LINE
8
right_outsideCutPath
10
200.8125
20
41.5
11
200.8125
21
44.5
0
LINE
8
right_outsideCutPath
10
200.8125
20
44.5
11
208.1875
21
44.5
0
LINE
8
right_outsideCutPath
10
208.1875
20
44.5
11
208.1875
21
41.5
0
LINE
8
right_outsideCutPath
10
208.1875
20
41.5
11
216.5625
21
41.5
0
LINE
8
right_outsideCutPath
10
216.5625
20
41.5
11
216.5625
21
44.5
0
LINE
8
right_outsideCutPath
10
216.5625
20
44.5
11
223.9375
21
44.5
0
LINE
8
right_outsideCutPath
10
223.9375
20
44.5
11
223.9375
21
41.5
0
LINE
8
right_outsideCutPath
10
223.9375
20
41.5
11
232.3125
21
41.5
0
LINE
8
right_outsideCutPath
10
232.3125
20
41.5
11
232.3125
21
44.5
0
LINE
8
right_outsideCutPath
10
232.3125
20
44.5
11
239.6875
21
44.5
0
LINE
8
right_outsideCutPath
10
239.6875
20
44.5
11
239.6875
21
41.5
0
LINE
8
right_outsideCutPath
10
239.6875
20
41.5
11
248.0625
21
41.5
0
LINE
8
right_outsideCutPath
10
248.0625
20
41.5
11
248.0625
21
44.5
0
LINE
8
right_outsideCutPath
10
248.0625
20
44.5
11
255.4375
21
44.5
0
LINE
8
right_outsideCutPath
10
255.4375
20
44.5
11
255.4375
21
41.5
0
LINE
8
right_outsideCutPath
10
255.4375
20
41.5
11
261
21
41.5
0
LINE
8
right_outsideCutPath
10
261
20
41.5
11
261
21
47.1875
0
LINE
8
right_outsideCutPath
10
261
20
47.1875
11
264
21
47.1875
0
LINE
8
right_outsideCutPath
10
264
20
47.1875
11
264
21
55.5625
0
LINE
8
right_outsideCutPath
10
264
20
55.5625
11
261
21
55.5625
0
LINE
8
right_outsideCutPath
10
261
20
55.5625
11
261
21
62.9375
0
LINE
8
right_outsideCutPath
10
261
20
62.9375
11
264
21
62.9375
0
LINE
8
right_outsideCutPath
10
264
20
62.9375
11
264
21
71.3125
0
LINE
8
right_outsideCutPath
10
264
20
71.3125
11
261
21
71.3125
0
LINE
8
right_outsideCutPath
10
261
20
71.3125
11
261
21
77
0
LINE
8
right_outsideCutPath
10
261
20
77
11
255.4375
21
77
0
LINE
8
right_outsideCutPath
10
255.4375
20
77
11
255.4375
21
74
0
LINE
8
right_outsideCutPath
10
255.4375
20
74
11
248.0625
21
74
0
LINE
8
right_outsideCutPath
10
248.0625
20
74
11
248.0625
21
77
0
LINE
8
right_outsideCutPath
10
248.0625
20
77
11
239.6875
21
77
0
LINE
8
right_outsideCutPath
10
239.6875
20
77
11
239.6875
21
74
0
LINE
8
right_outsideCutPath
10
239.6875
20
74
11
232.3125
21
74
0
LINE
8
right_outsideCutPath
10
232.3125
20
74
11
232.3125
21
77
0
LINE
8
right_outsideCutPath
10
232.3125
20
77
11
223.9375
21
77
0
LINE
8
right_outsideCutPath
10
223.9375
20
77
11
223.9375
21
74
0
LINE
8
right_outsideCutPath
10
223.9375
20
74
11
216.5625
21
74
0
LINE
8
right_outsideCutPath
10
216.5625
20
74
11
216.5625
21
77
0
LINE
8
right_outsideCutPath
10
216.5625
20
77
11
208.1875
21
77
0
LINE
8
right_outsideCutPath
10
208.1875
20
77
11
208.1875
21
74
0
LINE
8
right_outsideCutPath
10
208.1875
20
74
11
200.8125
21
74
0
LINE
8
right_outsideCutPath
10
200.8125
20
74
11
200.8125
21
77
0
LINE
8
right_outsideCutPath
10
200.8125
20
77
11
192.4375
21
77
0
LINE
8
right_outsideCutPath
10
192.4375
20
77
11
192.4375
21
74
0
LINE
8
right_outsideCutPath
10
192.4375
20
74
11
185.0625
21
74
0
LINE
8
right_outsideCutPath
10
185.0625
20
74
11
185.0625
21
77
0
LINE
8
right_outsideCutPath
10
185.0625
20
77
11
176.6875
21
77
0
LINE
8
right_outsideCutPath
10
176.6875
20
77
11
176.6875
21
74
0
LINE
8
right_outsideCutPath
10
176.6875
20
74
11
169.3125
21
74
0
LINE
8
right_outsideCutPath
10
169.3125
20
74
11
169.3125
21
77
0
LINE
8
right_outsideCutPath
10
169.3125
20
77
11
160.9375
21
77
0
LINE
8
right_outsideCutPath
10
160.9375
20
77
11
160.9375
21
74
0
LINE
8
right_outsideCutPath
10
160.9375
20
74
11
153.5625
21
74
0
LINE
8
right_outsideCutPath
10
153.5625
20
74
11
153.5625
21
77
0
LINE
8
right_outsideCutPath
10
153.5625
20
77
11
145.1875
21
77
0
LINE
8
right_outsideCutPath
10
145.1875
20
77
11
145.1875
21
74
0
LINE
8
right_outsideCutPath
10
145.1875
20
74
11
137.8125
21
74
0
LINE
8
right_outsideCutPath
10
137.8125
20
74
11
137.8125
21
77
0
LINE
8
right_outsideCutPath
10
137.8125
20
77
11
129.4375
21
77
0
LINE
8
right_outsideCutPath
10
129.4375
20
77
11
129.4375
21
74
0
LINE
8
right_outsideCutPath
10
129.4375
20
74
11
122.0625
21
74
0
LINE
8
right_outsideCutPath
10
122.0625
20
74
11
122.0625
21
77
0
LINE
8
right_outsideCutPath
10
122.0625
20
77
11
116.5
21
77
0
LINE
8
right_outsideCutPath
10
116.5
20
77
11
116.5
21
71.3125
0
LINE
8
right_outsideCutPath
10
116.5
20
71.3125
11
113.5
21
71.3125
0
LINE
8
right_outsideCutPath
10
113.5
20
71.3125
11
113.5
21
62.9375
0
LINE
8
right_outsideCutPath
10
113.5
20
62.9375
11
116.5
21
62.9375
0
LINE
8
right_outsideCutPath
10
116.5
20
62.9375
11
116.5
21
55.5625
0
LINE
8
right_outsideCutPath
10
116.5
20
55.5625
11
113.5
21
55.5625
0
LINE
8
right_outsideCutPath
10
113.5
20
55.5625
11
113.5
21
47.1875
0
LINE
8
right_outsideCutPath
10
113.5
20
47.1875
11
116.5
21
47.1875
0
LINE
8
right_outsideCutPath
10
116.5
20
47.1875
11
116.5
21
41.5
0
LINE
8
right_outsideCutPath
10
116.5
20
41.5
11
122.0625
21
41.5
0
LINE
8
right_outsideCutPath
10
122.0625
20
41.5
11
122.0625
21
44.5
0
LINE
8
bottom_outsideCutPath
10
287.0625
20
159.5
11
294.4375
21
159.5
0
LINE
8
bottom_outsideCutPath
10
294.4375
20
159.5
11
294.4375
21
156.5
0
LINE
8
bottom_outsideCutPath
10
294.4375
20
156.5
11
302.8125
21
156.5
0
LINE
8
bottom_outsideCutPath
10
302.8125
20
156.5
11
302.8125
21
159.5
0
LINE
8
bottom_outsideCutPath
10
302.8125
20
159.5
11
310.1875
21
159.5
0
LINE
8
bottom_outsideCutPath
10
310.1875
20
159.5
11
310.1875
21
156.5
0
LINE
8
bottom_outsideCutPath
10
310.1875
20
156.5
11
318.5625
21
156.5
0
LINE
8
bottom_outsideCutPath
10
318.5625
20
156.5
11
318.5625
21
159.5
0
LINE
8
bottom_outsideCutPath
10
318.5625
20
159.5
11
325.9375
21
159.5
0
LINE
8
bottom_outsideCutPath
10
325.9375
20
159.5
11
325.9375
21
156.5
0
LINE
8
bottom_outsideCutPath
10
325.9375
20
156.5
11
334.3125
21
156.5
0
LINE
8
bottom_outsideCutPath
10
334.3125
20
156.5
11
334.3125
21
159.5
0
LINE
8
bottom_outsideCutPath
10
334.3125
20
159.5
11
341.6875
21
159.5
0
LINE
8
bottom_outsideCutPath
10
341.6875
20
159.5
11
341.6875
21
156.5
0
LINE
8
bottom_outsideCutPath
10
341.6875
20
156.5
11
350.0625
21
156.5
0
LINE
8
bottom_outsideCutPath
10
350.0625
20
156.5
11
350.0625
21
159.5
0
LINE
8
bottom_outsideCutPath
10
350.0625
20
159.5
11
357.4375
21
159.5
0
LINE
8
bottom_outsideCutPath
10
357.4375
20
159.5
11
357.4375
21
156.5
0
LINE
8
bottom_outsideCutPath
10
357.4375
20
156.5
11
365.8125
21
156.5
0
LINE
8
bottom_outsideCutPath
10
365.8125
20
156.5
11
365.8125
21
159.5
0
LINE
8
bottom_outsideCutPath
10
365.8125
20
159.5
11
374.5
21
159.5
0
LINE
8
bottom_outsideCutPath
10
374.5
20
159.5
11
374.5
21
164.5625
0
LINE
8
bottom_outsideCutPath
10
374.5
20
164.5625
11
377.5
21
164.5625
0
LINE
8
bottom_outsideCutPath
10
377.5
20
164.5625
11
377.5
21
172.9375
0
LINE
8
bottom_outsideCutPath
10
377.5
20
172.9375
11
374.5
21
172.9375
0
LINE
8
bottom_outsideCutPath
10
374.5
20
172.9375
11
374.5
21
180.3125
0
LINE
8
bottom_outsideCutPath
10
374.5
20
180.3125
11
377.5
21
180.3125
0
LINE
8
bottom_outsideCutPath
10
377.5
20
180.3125
11
377.5
21
188.6875
0
LINE
8
bottom_outsideCutPath
10
377.5
20
188.6875
11
374.5
21
188.6875
0
LINE
8
bottom_outsideCutPath
10
374.5
20
188.6875
11
374.5
21
196.0625
0
LINE
8
bottom_outsideCutPath
10
374.5
20
196.0625
11
377.5
21
196.0625
0
LINE
8
bottom_outsideCutPath
10
377.5
20
196.0625
11
377.5
21
204.4375
0
LINE
8
bottom_outsideCutPath
10
377.5
20
204.4375
11
374.5
21
204.4375
0
LINE
8
bottom_outsideCutPath
10
374.5
20
204.4375
11
374.5
21
211.8125
0
LINE
8
bottom_outsideCutPath
10
374.5
20
211.8125
11
377.5
21
211.8125
0
LINE
8
bottom_outsideCutPath
10
377.5
20
211.8125
11
377.5
21
220.1875
0
LINE
8
bottom_outsideCutPath
10
377.5
20
220.1875
11
374.5
21
220.1875
0
LINE
8
bottom_outsideCutPath
10
374.5
20
220.1875
11
374.5
21
227.5625
0
LINE
8
bottom_outsideCutPath
10
374.5
20
227.5625
11
377.5
21
227.5625
0
LINE
8
bottom_outsideCutPath
10
377.5
20
227.5625
11
377.5
21
235.9375
0
LINE
8
bottom_outsideCutPath
10
377.5
20
235.9375
11
374.5
21
235.9375
0
LINE
8
bottom_outsideCutPath
10
374.5
20
235.9375
11
374.5
21
243.3125
0
LINE
8
bottom_outsideCutPath
10
374.5
20
243.3125
11
377.5
21
243.3125
0
LINE
8
bottom_outsideCutPath
10
377.5
20
243.3125
11
377.5
21
251.6875
0
LINE
8
bottom_outsideCutPath
10
377.5
20
251.6875
11
374.5
21
251.6875
0
LINE
8
bottom_outsideCutPath
10
374.5
20
251.6875
11
374.5
21
259.0625
0
LINE
8
bottom_outsideCutPath
10
374.5
20
259.0625
11
377.5
21
259.0625
0
LINE
8
bottom_outsideCutPath
10
377.5
20
259.0625
11
377.5
21
267.4375
0
LINE
8
bottom_outsideCutPath
10
377.5
20
267.4375
11
374.5
21
267.4375
0
LINE
8
bottom_outsideCutPath
10
374.5
20
267.4375
11
374.5
21
274.8125
0
LINE
8
bottom_outsideCutPath
10
374.5
20
274.8125
11
377.5
21
274.8125
0
LINE
8
bottom_outsideCutPath
10
377.5
20
274.8125
11
377.5
21
283.1875
0
LINE
8
bottom_outsideCutPath
10
377.5
20
283.1875
11
374.5
21
283.1875
0
LINE
8
bottom_outsideCutPath
10
374.5
20
283.1875
11
374.5
21
290.5625
0
LINE
8
bottom_outsideCutPath
10
374.5
20
290.5625
11
377.5
21
290.5625
0
LINE
8
bottom_outsideCutPath
10
377.5
20
290.5625
11
377.5
21
298.9375
0
LINE
8
bottom_outsideCutPath
10
377.5
20
298.9375
11
374.5
21
298.9375
0
LINE
8
bottom_outsideCutPath
10
374.5
20
298.9375
11
374.5
21
304
0
LINE
8
bottom_outsideCutPath
10
374.5
20
304
11
365.8125
21
304
0
LINE
8
bottom_outsideCutPath
10
365.8125
20
304
11
365.8125
21
307
0
LINE
8
bottom_outsideCutPath
10
365.8125
20
307
11
357.4375
21
307
0
LINE
8
bottom_outsideCutPath
10
357.4375
20
307
11
357.4375
21
304
0
LINE
8
bottom_outsideCutPath
10
357.4375
20
304
11
350.0625
21
304
0
LINE
8
bottom_outsideCutPath
10
350.0625
20
304
11
350.0625
21
307
0
LINE
8
bottom_outsideCutPath
10
350.0625
20
307
11
341.6875
21
307
0
LINE
8
bottom_outsideCutPath
10
341.6875
20
307
11
341.6875
21
304
0
LINE
8
bottom_outsideCutPath
10
341.6875
20
304
11
334.3125
21
304
0
LINE
8
bottom_outsideCutPath
10
334.3125
20
304
11
334.3125
21
307
0
LINE
8
bottom_outsideCutPath
10
334.3125
20
307
11
325.9375
21
307
0
LINE
8
bottom_outsideCutPath
10
325.9375
20
307
11
325.9375
21
304
0
LINE
8
bottom_outsideCutPath
10
325.9375
20
304
11
318.5625
21
304
0
LINE
8
bottom_outsideCutPath
10
318.5625
20
304
11
318.5625
21
307
0
LINE
8
bottom_outsideCutPath
10
318.5625
20
307
11
310.1875
21
307
0
LINE
8
bottom_outsideCutPath
10
310.1875
20
307
11
310.1875
21
304
0
LINE
8
bottom_outsideCutPath
10
310.1875
20
304
11
302.8125
21
304
0
LINE
8
bottom_outsideCutPath
10
302.8125
20
304
11
302.8125
21
307
0
LINE
8
bottom_outsideCutPath
10
302.8125
20
307
11
294.4375
21
307
0
LINE
8
bottom_outsideCutPath
10
294.4375
20
307
11
294.4375
21
304
0
LINE
8
bottom_outsideCutPath
10
294.4375
20
304
11
287.0625
21
304
0
LINE
8
bottom_outsideCutPath
10
287.0625
20
304
11
287.0625
21
307
0
LINE
8
bottom_outsideCutPath
10
287.0625
20
307
11
278.6875
21
307
0
LINE
8
bottom_outsideCutPath
10
278.6875
20
307
11
278.6875
21
304
0
LINE
8
bottom_outsideCutPath
10
278.6875
20
304
11
270
21
304
0
LINE
8
bottom_outsideCutPath
10
270
20
304
11
270
21
298.9375
0
LINE
8
bottom_outsideCutPath
10
270
20
298.9375
11
267
21
298.9375
0
LINE
8
bottom_outsideCutPath
10
267
20
298.9375
11
267
21
290.5625
0
LINE
8
bottom_outsideCutPath
10
267
20
290.5625
11
270
21
290.5625
0
LINE
8
bottom_outsideCutPath
10
270
20
290.5625
11
270
21
283.1875
0
LINE
8
bottom_outsideCutPath
10
270
20
283.1875
11
267
21
283.1875
0
LINE
8
bottom_outsideCutPath
10
267
20
283.1875
11
267
21
274.8125
0
LINE
8
bottom_outsideCutPath
10
267
20
274.8125
11
270
21
274.8125
0
LINE
8
bottom_outsideCutPath
10
270
20
274.8125
11
270
21
267.4375
0
LINE
8
bottom_outsideCutPath
10
270
20
267.4375
11
267
21
267.4375
0
LINE
8
bottom_outsideCutPath
10
267
20
267.4375
11
267
21
259.0625
0
LINE
8
bottom_outsideCutPath
10
267
20
259.0625
11
270
21
259.0625
0
LINE
8
bottom_outsideCutPath
10
270
20
259.0625
11
270
21
251.6875
0
LINE
8
bottom_outsideCutPath
10
270
20
251.6875
11
267
21
251.6875
0
LINE
8
bottom_outsideCutPath
10
267
20
251.6875
11
267
21
243.3125
0
LINE
8
bottom_outsideCutPath
10
267
20
243.3125
11
270
21
243.3125
0
LINE
8
bottom_outsideCutPath
10
270
20
243.3125
11
270
21
235.9375
0
LINE
8
bottom_outsideCutPath
10
270
20
235.9375
11
267
21
235.9375
0
LINE
8
bottom_outsideCutPath
10
267
20
235.9375
11
267
21
227.5625
0
LINE
8
bottom_outsideCutPath
10
267
20
227.5625
11
270
21
227.5625
0
LINE
8
bottom_outsideCutPath
10
270
20
227.5625
11
270
21
220.1875
0
LINE
8
bottom_outsideCutPath
10
270
20
220.1875
11
267
21
220.1875
0
LINE
8
bottom_outsideCutPath
10
267
20
220.1875
11
267
21
211.8125
0
LINE
8
bottom_outsideCutPath
10
267
20
211.8125
11
270
21
211.8125
0
LINE
8
bottom_outsideCutPath
10
270
20
211.8125
11
270
21
204.4375
0
LINE
8
bottom_outsideCutPath
10
270
20
204.4375
11
267
21
204.4375
0
LINE
8
bottom_outsideCutPath
10
267
20
204.4375
11
267
21
196.0625
0
LINE
8
bottom_outsideCutPath
10
267
20
196.0625
11
270
21
196.0625
0
LINE
8
bottom_outsideCutPath
10
270
20
196.0625
11
270
21
188.6875
0
LINE
8
bottom_outsideCutPath
10
270
20
188.6875
11
267
21
188.6875
0
LINE
8
bottom_outsideCutPath
10
267
20
188.6875
11
267
21
180.3125
0
LINE
8
bottom_outsideCutPath
10
267
20
180.3125
11
270
21
180.3125
0
LINE
8
bottom_outsideCutPath
10
270
20
180.3125
11
270
21
172.9375
0
LINE
8
bottom_outsideCutPath
10
270
20
172.9375
11
267
21
172.9375
0
LINE
8
bottom_outsideCutPath
10
267
20
172.9375
11
267
21
164.5625
0
LINE
8
bottom_outsideCutPath
10
267
20
164.5625
11
270
21
164.5625
0
LINE
8
bottom_outsideCutPath
10
270
20
164.5625
11
270
21
159.5
0
LINE
8
bottom_outsideCutPath
10
270
20
159.5
11
278.6875
21
159.5
0
LINE
8
bottom_outsideCutPath
10
278.6875
20
159.5
11
278.6875
21
156.5
0
LINE
8
bottom_outsideCutPath
10
278.6875
20
156.5
11
287.0625
21
156.5
0
LINE
8
bottom_outsideCutPath
10
287.0625
20
156.5
11
287.0625
21
159.5
0
ENDSEC
0
EOF